SplineFontDB: 3.0
FontName: Bodoni-24-Fatface
FullName: Bodoni* 24 Fatface
FamilyName: Bodoni* 24 Fatface
Weight: Fatface
Copyright: Copyright (c) 2017, Owen Earl,,, (EwonRael@yahoo.com)
Version: 001.2
ItalicAngle: 0
UnderlinePosition: -800
UnderlineWidth: 400
Ascent: 6400
Descent: 1600
InvalidEm: 0
LayerCount: 2
Layer: 0 0 "Back" 1
Layer: 1 0 "Fore" 0
PreferredKerning: 4
XUID: [1021 31 -699969567 16487490]
FSType: 0
OS2Version: 0
OS2_WeightWidthSlopeOnly: 0
OS2_UseTypoMetrics: 1
CreationTime: 1460762150
ModificationTime: 1548990348
PfmFamily: 17
TTFWeight: 900
TTFWidth: 5
LineGap: 800
VLineGap: 0
OS2TypoAscent: 6400
OS2TypoAOffset: 0
OS2TypoDescent: -1600
OS2TypoDOffset: 0
OS2TypoLinegap: 800
OS2WinAscent: 8000
OS2WinAOffset: 0
OS2WinDescent: 3200
OS2WinDOffset: 0
HheadAscent: 8000
HheadAOffset: 0
HheadDescent: -1600
HheadDOffset: 0
OS2CapHeight: 700
OS2XHeight: 460
OS2FamilyClass: 768
OS2Vendor: 'PfEd'
OS2UnicodeRanges: 00000001.00000000.00000000.00000000
Lookup: 1 0 0 "'ss02' Style Set 2 lookup 4" { "'ss02' Style Set 2 lookup 4-1"  } ['ss02' ('DFLT' <'dflt' > 'grek' <'dflt' > 'latn' <'dflt' > ) ]
Lookup: 1 0 0 "'ss03' Style Set 3 lookup 5" { "'ss03' Style Set 3 lookup 5-1"  } ['ss03' ('DFLT' <'dflt' > 'grek' <'dflt' > 'latn' <'dflt' > ) ]
Lookup: 1 0 0 "'ss01' Style Set 1 lookup 2" { "'ss01' Style Set 1 lookup 2-1"  } ['ss01' ('DFLT' <'dflt' > 'grek' <'dflt' > 'latn' <'dflt' > ) ]
Lookup: 5 0 0 "'calt' Contextual Alternates lookup 3" { "'calt' Contextual Alternates lookup 3-1"  } ['calt' ('DFLT' <'dflt' > 'grek' <'dflt' > 'latn' <'dflt' > ) ]
Lookup: 4 0 1 "'liga' Standard Ligatures lookup 0" { "'liga' Standard Ligatures lookup 0-1"  } ['liga' ('DFLT' <'dflt' > 'grek' <'dflt' > 'latn' <'dflt' > ) ]
Lookup: 258 0 0 "'kern' Horizontal Kerning lookup 0" { "kerning like they all do" [150,0,6] } ['kern' ('DFLT' <'dflt' > 'grek' <'dflt' > 'latn' <'dflt' > ) ]
MarkAttachClasses: 1
DEI: 91125
KernClass2: 30 27 "kerning like they all do"

StartChar: ampersand
Encoding: 38 38 0
GlifName: ampersand
Width: 7352
Flags: HMW
LayerCount: 2
Fore
SplineSet
4992 3680 m 1
 6912 3680 l 1
 6912 3608 l 1
 4992 3608 l 1
 4992 3680 l 1
6120 3648 m 1
 5920 1864 4816 -80 2392 -80 c 0
 928 -80 320 616 320 1440 c 0
 320 2776 2224 3120 2848 3496 c 0
 3488 3912 3848 3760 3848 5120 c 0
 3848 5656 3768 6024 3472 6024 c 0
 3216 6024 3088 5704 3088 5360 c 0
 3088 5000 3368 4432 3712 3920 c 2
 6224 72 l 1
 7192 72 l 1
 7192 0 l 1
 4360 0 l 1
 1712 3920 l 2
 1504 4224 1344 4624 1344 4904 c 0
 1344 5624 2184 6080 3512 6080 c 0
 4768 6080 5480 5736 5480 5144 c 0
 5480 4200 4120 4344 2800 3448 c 0
 2312 3120 2112 3240 2112 2192 c 0
 2112 1168 2712 264 3464 264 c 0
 4640 264 5888 1832 6048 3648 c 1
 6120 3648 l 1
EndSplineSet
EndChar

StartChar: period
Encoding: 46 46 1
GlifName: period
Width: 2560
Flags: HMW
LayerCount: 2
Fore
SplineSet
320 880 m 0
 320 1408 752 1840 1280 1840 c 0
 1808 1840 2240 1408 2240 880 c 0
 2240 352 1808 -80 1280 -80 c 0
 752 -80 320 352 320 880 c 0
EndSplineSet
EndChar

StartChar: zero
Encoding: 48 48 2
GlifName: zero
Width: 5600
Flags: HMW
LayerCount: 2
Fore
SplineSet
2800 -80 m 0
 1336 -80 320 1216 320 3000 c 0
 320 4784 1416 6080 2800 6080 c 0
 4184 6080 5280 4784 5280 3000 c 0
 5280 1216 4264 -80 2800 -80 c 0
2800 6016 m 0
 2288 6016 2200 4856 2200 3000 c 0
 2200 1144 2208 -16 2800 -16 c 0
 3392 -16 3400 1144 3400 3000 c 0
 3400 4856 3392 6016 2800 6016 c 0
EndSplineSet
EndChar

StartChar: one
Encoding: 49 49 3
GlifName: one
Width: 4440
VWidth: 9240
Flags: HMW
LayerCount: 2
Fore
SplineSet
400 72 m 1
 4040 72 l 1
 4040 0 l 1
 400 0 l 1
 400 72 l 1
536 6000 m 1
 3160 6000 l 1
 3160 40 l 1
 1440 40 l 1
 1440 5928 l 1
 536 5928 l 1
 536 6000 l 1
EndSplineSet
EndChar

StartChar: two
Encoding: 50 50 4
GlifName: two
Width: 5200
VWidth: 9240
Flags: HMW
LayerCount: 2
Fore
SplineSet
4920 0 m 1
 320 0 l 1
 320 1080 l 1
 1960 2120 l 2
 2640 2560 2992 3088 2992 4080 c 0
 2992 5152 2536 5792 1912 5792 c 0
 1168 5792 504 5184 488 4432 c 1
 600 4824 960 5136 1384 5136 c 0
 1984 5136 2384 4728 2384 4208 c 0
 2384 3648 1840 3256 1320 3256 c 0
 800 3256 392 3656 392 4392 c 0
 392 5328 1264 6080 2600 6080 c 0
 3968 6080 4752 5440 4752 4560 c 0
 4752 3520 3664 3064 2912 2600 c 2
 1424 1680 l 1
 4848 1680 l 1
 4848 2280 l 1
 4920 2280 l 1
 4920 0 l 1
EndSplineSet
EndChar

StartChar: three
Encoding: 51 51 5
GlifName: three
Width: 4968
VWidth: 9240
Flags: HMW
LayerCount: 2
Fore
SplineSet
4648 1680 m 0
 4648 560 3536 -80 2248 -80 c 0
 872 -80 200 752 200 1488 c 0
 200 2056 600 2448 1120 2448 c 0
 1600 2448 1952 2096 1952 1568 c 0
 1952 1072 1528 720 1056 720 c 0
 760 720 560 824 432 984 c 1
 624 528 1152 64 1976 64 c 0
 2768 64 2880 688 2880 1680 c 0
 2880 2512 2656 3208 1704 3208 c 1
 1704 3264 l 1
 3792 3264 4648 2640 4648 1680 c 0
1704 3224 m 1
 1704 3280 l 1
 2576 3280 2640 4136 2640 4728 c 0
 2640 5400 2488 5936 2016 5936 c 0
 1528 5936 1056 5656 856 5384 c 1
 992 5544 1192 5592 1376 5592 c 0
 1768 5592 2152 5272 2152 4792 c 0
 2152 4272 1736 3904 1296 3904 c 0
 816 3904 440 4192 440 4720 c 0
 440 5536 1432 6072 2248 6072 c 0
 3456 6072 4408 5528 4408 4648 c 0
 4408 3848 3712 3224 1704 3224 c 1
EndSplineSet
EndChar

StartChar: four
Encoding: 52 52 6
GlifName: four
Width: 5480
VWidth: 9240
Flags: HMW
LayerCount: 2
Fore
SplineSet
5120 72 m 1
 5120 0 l 1
 2040 0 l 1
 2040 72 l 1
 2800 72 l 1
 2800 5128 l 1
 416 1760 l 1
 5400 1760 l 1
 5400 1680 l 1
 280 1680 l 1
 3320 6000 l 1
 4520 6000 l 1
 4520 72 l 1
 5120 72 l 1
EndSplineSet
Substitution2: "'ss03' Style Set 3 lookup 5-1" four.alt
EndChar

StartChar: five
Encoding: 53 53 7
GlifName: five
Width: 4560
VWidth: 9240
Flags: HMW
LayerCount: 2
Fore
SplineSet
4040 4320 m 1
 448 4320 l 1
 448 2696 l 1
 376 2696 l 1
 376 6000 l 1
 3968 6000 l 1
 3968 6440 l 1
 4040 6440 l 1
 4040 4320 l 1
280 600 m 1
 408 296 936 24 1456 24 c 0
 2168 24 2520 648 2520 1720 c 0
 2520 2952 2280 3376 1648 3376 c 0
 1144 3376 680 3104 480 2696 c 1
 416 2696 l 1
 624 3152 1128 3520 2016 3520 c 0
 3384 3520 4320 2920 4320 1720 c 0
 4320 600 3176 -80 1728 -80 c 0
 832 -80 -80 296 -80 1192 c 0
 -80 1760 336 2168 856 2168 c 0
 1376 2168 1792 1840 1792 1280 c 0
 1792 760 1328 320 808 320 c 0
 568 320 400 432 280 600 c 1
EndSplineSet
EndChar

StartChar: six
Encoding: 54 54 8
GlifName: six
Width: 5280
VWidth: 9240
Flags: HMW
LayerCount: 2
Fore
SplineSet
3200 2000 m 0
 3200 3472 3040 3768 2728 3768 c 0
 2368 3768 2240 3440 2240 2240 c 1
 2184 2240 l 1
 2184 3352 2216 3960 3048 3960 c 0
 4016 3960 5040 3360 5040 2000 c 0
 5040 800 4120 -80 2752 -80 c 0
 1384 -80 400 800 400 2480 c 0
 400 4424 2016 6080 4440 6080 c 1
 4440 6016 l 1
 2968 6016 2224 4376 2224 2808 c 1
 2240 2240 l 1
 2240 768 2384 -8 2776 -8 c 0
 3168 -8 3200 688 3200 2000 c 0
EndSplineSet
EndChar

StartChar: seven
Encoding: 55 55 9
GlifName: seven
Width: 4600
VWidth: 9240
Flags: HMW
LayerCount: 2
Fore
SplineSet
1024 848 m 0
 1024 1480 1920 2160 2552 3024 c 0
 2792 3352 2960 3584 3384 4280 c 1
 392 4280 l 1
 392 3680 l 1
 320 3680 l 1
 320 6000 l 1
 4520 6000 l 1
 4520 6000 3432 4096 2736 3104 c 0
 2312 2496 2224 2400 2224 2176 c 0
 2224 1752 3024 1632 3024 864 c 0
 3024 328 2624 -80 2032 -80 c 0
 1480 -80 1024 216 1024 848 c 0
EndSplineSet
EndChar

StartChar: eight
Encoding: 56 56 10
GlifName: eight
Width: 5200
VWidth: 9240
Flags: HMW
LayerCount: 2
Fore
SplineSet
2240 4480 m 0
 2240 3408 2368 3160 2600 3160 c 0
 2832 3160 2960 3408 2960 4480 c 0
 2960 5472 2832 5920 2600 5920 c 0
 2368 5920 2240 5472 2240 4480 c 0
480 4480 m 0
 480 5360 1232 6080 2600 6080 c 0
 3968 6080 4720 5360 4720 4480 c 0
 4720 3600 3968 3040 2600 3040 c 0
 1232 3040 480 3600 480 4480 c 0
2080 1520 m 0
 2080 608 2208 80 2600 80 c 0
 2992 80 3120 608 3120 1520 c 0
 3120 2432 2992 3000 2600 3000 c 0
 2208 3000 2080 2432 2080 1520 c 0
320 1520 m 0
 320 2480 1072 3120 2600 3120 c 0
 4128 3120 4880 2480 4880 1520 c 0
 4880 560 4128 -80 2600 -80 c 0
 1072 -80 320 560 320 1520 c 0
EndSplineSet
EndChar

StartChar: A
Encoding: 65 65 12
GlifName: A_
Width: 6640
Flags: HMW
LayerCount: 2
Fore
SplineSet
120 72 m 1
 1880 72 l 1
 1880 0 l 1
 120 0 l 1
 120 72 l 1
3400 72 m 1
 6520 72 l 1
 6520 0 l 1
 3400 0 l 1
 3400 72 l 1
1544 2000 m 1
 4120 2000 l 1
 4120 1920 l 1
 1544 1920 l 1
 1544 2000 l 1
2496 4504 m 1
 912 0 l 1
 824 0 l 1
 2992 6120 l 1
 3840 6120 l 1
 5960 0 l 1
 3960 0 l 1
 2496 4504 l 1
EndSplineSet
EndChar

StartChar: B
Encoding: 66 66 13
GlifName: B_
Width: 6120
Flags: HMW
LayerCount: 2
Fore
SplineSet
3240 3056 m 2
 2200 3056 l 1
 2200 3120 l 1
 2920 3120 l 2
 3448 3120 3800 3488 3800 4440 c 0
 3800 5392 3448 5928 2920 5928 c 2
 120 5928 l 1
 120 6000 l 1
 3240 6000 l 2
 4688 6000 5560 5560 5560 4520 c 0
 5560 3560 4768 3056 3240 3056 c 2
840 6000 m 1
 2560 6000 l 1
 2560 0 l 1
 840 0 l 1
 840 6000 l 1
3400 0 m 2
 120 0 l 1
 120 72 l 1
 3000 72 l 2
 3608 72 3960 728 3960 1680 c 0
 3960 2632 3608 3040 3000 3040 c 2
 2200 3040 l 1
 2200 3104 l 1
 3400 3104 l 2
 4768 3104 5800 2720 5800 1520 c 0
 5800 400 4928 0 3400 0 c 2
EndSplineSet
EndChar

StartChar: C
Encoding: 67 67 14
GlifName: C_
Width: 5880
Flags: HMW
LayerCount: 2
Fore
SplineSet
5424 6000 m 1
 5480 6000 l 1
 5480 4120 l 1
 5296 4440 4720 5336 4440 5616 c 1
 5424 6000 l 1
5480 4120 m 1
 5400 4120 l 1
 4824 5200 4312 5960 3440 5960 c 0
 2448 5960 2200 4456 2200 3000 c 0
 2200 1544 2448 40 3440 40 c 0
 4512 40 4952 856 5480 1880 c 1
 5560 1880 l 1
 5080 736 4504 -80 3360 -80 c 0
 1416 -80 320 1216 320 3000 c 0
 320 4784 1416 6080 3360 6080 c 0
 4384 6080 4920 5264 5480 4120 c 1
5560 1880 m 1
 5560 0 l 1
 5504 0 l 1
 4576 416 l 1
 4872 704 5416 1584 5560 1880 c 1
EndSplineSet
EndChar

StartChar: D
Encoding: 68 68 15
GlifName: D_
Width: 6520
Flags: HMW
LayerCount: 2
Fore
SplineSet
840 6000 m 1
 2560 6000 l 1
 2560 0 l 1
 840 0 l 1
 840 6000 l 1
3000 0 m 2
 120 0 l 1
 120 72 l 1
 3000 72 l 2
 3992 72 4320 1304 4320 3000 c 0
 4320 4696 3912 5928 3000 5928 c 2
 120 5928 l 1
 120 6000 l 1
 3000 6000 l 2
 5024 6000 6200 4864 6200 3000 c 0
 6200 1136 4944 0 3000 0 c 2
EndSplineSet
EndChar

StartChar: E
Encoding: 69 69 16
GlifName: E_
Width: 5360
Flags: HMW
LayerCount: 2
Fore
SplineSet
5048 1800 m 1
 5120 1800 l 1
 5120 0 l 1
 120 0 l 1
 120 72 l 1
 2960 72 l 2
 4056 72 4808 784 5048 1800 c 1
840 6000 m 1
 2560 6000 l 1
 2560 0 l 1
 840 0 l 1
 840 6000 l 1
120 6000 m 1
 5040 6000 l 1
 5040 4360 l 1
 4968 4360 l 1
 4728 5216 3976 5928 3040 5928 c 2
 120 5928 l 1
 120 6000 l 1
3848 1984 m 1
 3608 2520 3096 3064 2640 3064 c 2
 2160 3064 l 1
 2160 3144 l 1
 2640 3144 l 2
 3096 3144 3608 3648 3848 4184 c 1
 3920 4184 l 1
 3920 1984 l 1
 3848 1984 l 1
EndSplineSet
EndChar

StartChar: F
Encoding: 70 70 17
GlifName: F_
Width: 5120
Flags: HMW
LayerCount: 2
Fore
SplineSet
120 6000 m 1
 4880 6000 l 1
 4880 4360 l 1
 4808 4360 l 1
 4568 5216 3976 5928 3120 5928 c 2
 120 5928 l 1
 120 6000 l 1
120 72 m 1
 3360 72 l 1
 3360 0 l 1
 120 0 l 1
 120 72 l 1
840 6000 m 1
 2560 6000 l 1
 2560 0 l 1
 840 0 l 1
 840 6000 l 1
3768 1824 m 1
 3528 2360 3136 2944 2600 2944 c 2
 2080 2944 l 1
 2080 3024 l 1
 2600 3024 l 2
 3136 3024 3528 3568 3768 4104 c 1
 3840 4104 l 1
 3840 1824 l 1
 3768 1824 l 1
EndSplineSet
EndChar

StartChar: G
Encoding: 71 71 18
GlifName: G_
Width: 6400
Flags: HMW
LayerCount: 2
Fore
SplineSet
5800 4120 m 1
 5496 4888 4976 5368 4592 5680 c 1
 5744 6000 l 1
 5800 6000 l 1
 5800 4120 l 1
3360 2320 m 1
 6320 2320 l 1
 6320 2240 l 1
 3360 2240 l 1
 3360 2320 l 1
4200 2264 m 1
 6000 2264 l 1
 6000 1160 l 1
 5200 576 4704 -80 3400 -80 c 0
 1496 -80 320 1056 320 3000 c 0
 320 4944 1896 6080 3520 6080 c 0
 4544 6080 5552 5104 5800 4120 c 1
 5728 4120 l 1
 5408 4856 4664 5952 3656 5952 c 0
 2664 5952 2200 4456 2200 3000 c 0
 2200 1544 2448 24 3400 24 c 0
 3752 24 4040 504 4200 1000 c 1
 4200 2264 l 1
EndSplineSet
EndChar

StartChar: H
Encoding: 72 72 19
GlifName: H_
Width: 6800
Flags: HMW
LayerCount: 2
Fore
SplineSet
2400 3000 m 1
 4400 3000 l 1
 4400 2920 l 1
 2400 2920 l 1
 2400 3000 l 1
3600 72 m 1
 6680 72 l 1
 6680 0 l 1
 3600 0 l 1
 3600 72 l 1
120 72 m 1
 3200 72 l 1
 3200 0 l 1
 120 0 l 1
 120 72 l 1
3600 6000 m 1
 6680 6000 l 1
 6680 5928 l 1
 3600 5928 l 1
 3600 6000 l 1
120 6000 m 1
 3200 6000 l 1
 3200 5928 l 1
 120 5928 l 1
 120 6000 l 1
4240 6000 m 1
 5960 6000 l 1
 5960 0 l 1
 4240 0 l 1
 4240 6000 l 1
840 6000 m 1
 2560 6000 l 1
 2560 0 l 1
 840 0 l 1
 840 6000 l 1
EndSplineSet
EndChar

StartChar: I
Encoding: 73 73 20
GlifName: I_
Width: 3800
Flags: HMW
LayerCount: 2
Fore
SplineSet
120 72 m 1
 3680 72 l 1
 3680 0 l 1
 120 0 l 1
 120 72 l 1
120 6000 m 1
 3680 6000 l 1
 3680 5928 l 1
 120 5928 l 1
 120 6000 l 1
1000 6000 m 1
 2720 6000 l 1
 2720 0 l 1
 1000 0 l 1
 1000 6000 l 1
EndSplineSet
EndChar

StartChar: J
Encoding: 74 74 21
GlifName: J_
Width: 5128
Flags: HMW
LayerCount: 2
Fore
SplineSet
1448 6000 m 1
 5008 6000 l 1
 5008 5928 l 1
 1448 5928 l 1
 1448 6000 l 1
2488 6000 m 1
 4208 6000 l 1
 4208 1360 l 1
 3728 400 3176 -240 1808 -240 c 0
 792 -240 80 200 80 1000 c 0
 80 1576 536 2000 1096 2000 c 0
 1616 2000 2024 1616 2024 1048 c 0
 2024 568 1640 96 1136 96 c 0
 864 96 616 176 496 288 c 1
 728 -16 1240 -160 1752 -160 c 0
 2320 -160 2488 400 2488 1520 c 2
 2488 6000 l 1
EndSplineSet
Substitution2: "'ss02' Style Set 2 lookup 4-1" J.alt
EndChar

StartChar: K
Encoding: 75 75 22
GlifName: K_
Width: 6840
Flags: HMW
LayerCount: 2
Fore
SplineSet
120 72 m 1
 3200 72 l 1
 3200 0 l 1
 120 0 l 1
 120 72 l 1
120 6000 m 1
 3360 6000 l 1
 3360 5928 l 1
 120 5928 l 1
 120 6000 l 1
840 6000 m 1
 2560 6000 l 1
 2560 0 l 1
 840 0 l 1
 840 6000 l 1
1488 1736 m 1
 1376 1736 l 1
 5488 5984 l 1
 5600 5984 l 1
 1488 1736 l 1
3520 72 m 1
 6800 72 l 1
 6800 0 l 1
 3520 0 l 1
 3520 72 l 1
6440 5928 m 1
 4520 5928 l 1
 4520 6000 l 1
 6440 6000 l 1
 6440 5928 l 1
6176 0 m 1
 4256 0 l 1
 2584 2920 l 1
 3744 4144 l 1
 6176 0 l 1
EndSplineSet
EndChar

StartChar: L
Encoding: 76 76 23
GlifName: L_
Width: 5280
Flags: HMW
LayerCount: 2
Fore
SplineSet
840 6000 m 1
 2560 6000 l 1
 2560 0 l 1
 840 0 l 1
 840 6000 l 1
120 6000 m 1
 760 6000 2640 6000 3280 6000 c 1
 3280 5928 l 1
 120 5928 l 1
 120 6000 l 1
5120 0 m 1
 120 0 l 1
 120 72 l 1
 2960 72 l 2
 4056 72 4808 784 5048 1800 c 1
 5120 1800 l 1
 5120 0 l 1
EndSplineSet
EndChar

StartChar: M
Encoding: 77 77 24
GlifName: M_
Width: 7520
Flags: HMW
LayerCount: 2
Fore
SplineSet
7400 6000 m 1
 7400 5928 l 1
 6840 5928 l 1
 6840 0 l 1
 5120 0 l 1
 5120 6000 l 1
 7400 6000 l 1
160 72 m 1
 1408 72 l 1
 1408 0 l 1
 160 0 l 1
 160 72 l 1
4480 72 m 1
 7400 72 l 1
 7400 0 l 1
 4480 0 l 1
 4480 72 l 1
3824 2384 m 1
 5080 6000 l 1
 5160 6000 l 1
 3056 -80 l 1
 2968 -80 l 1
 744 6000 l 1
 2472 6000 l 1
 3824 2384 l 1
728 5928 m 1
 120 5928 l 1
 120 6000 l 1
 808 6000 l 1
 808 0 l 1
 728 0 l 1
 728 5928 l 1
EndSplineSet
EndChar

StartChar: N
Encoding: 78 78 25
GlifName: N_
Width: 6176
Flags: HMW
LayerCount: 2
Fore
SplineSet
5144 6000 m 1
 5224 6000 l 1
 5224 -80 l 1
 5104 -80 l 1
 920 6000 l 1
 2960 6000 l 1
 5144 2856 l 1
 5144 6000 l 1
4264 6000 m 1
 6064 6000 l 1
 6064 5928 l 1
 4264 5928 l 1
 4264 6000 l 1
120 72 m 1
 1904 72 l 1
 1904 0 l 1
 120 0 l 1
 120 72 l 1
928 5928 m 1
 120 5928 l 1
 120 6000 l 1
 1008 6000 l 1
 1008 0 l 1
 928 0 l 1
 928 5928 l 1
EndSplineSet
EndChar

StartChar: O
Encoding: 79 79 26
GlifName: O_
Width: 6400
Flags: HMW
LayerCount: 2
Fore
SplineSet
3200 -80 m 0
 1416 -80 320 1216 320 3000 c 0
 320 4784 1496 6080 3200 6080 c 0
 4904 6080 6080 4784 6080 3000 c 0
 6080 1216 4984 -80 3200 -80 c 0
3200 6016 m 0
 2448 6016 2200 4856 2200 3000 c 0
 2200 1144 2368 -16 3200 -16 c 0
 4032 -16 4200 1144 4200 3000 c 0
 4200 4856 3952 6016 3200 6016 c 0
EndSplineSet
EndChar

StartChar: P
Encoding: 80 80 27
GlifName: P_
Width: 5880
Flags: HMW
LayerCount: 2
Fore
SplineSet
840 6000 m 1
 2560 6000 l 1
 2560 0 l 1
 840 0 l 1
 840 6000 l 1
120 72 m 1
 3280 72 l 1
 3280 0 l 1
 120 0 l 1
 120 72 l 1
3280 2680 m 2
 2000 2680 l 1
 2000 2760 l 1
 2960 2760 l 2
 3568 2760 3760 3608 3760 4320 c 0
 3760 5032 3568 5928 2960 5928 c 2
 120 5928 l 1
 120 6000 l 1
 3280 6000 l 2
 4888 6000 5600 5360 5600 4320 c 0
 5600 3280 4888 2680 3280 2680 c 2
EndSplineSet
EndChar

StartChar: Q
Encoding: 81 81 28
GlifName: Q_
Width: 6400
Flags: HMW
LayerCount: 2
Fore
SplineSet
3200 -80 m 0
 1416 -80 320 1216 320 3000 c 0
 320 4784 1496 6080 3200 6080 c 0
 4904 6080 6080 4784 6080 3000 c 0
 6080 1216 4984 -80 3200 -80 c 0
3200 6016 m 0
 2448 6016 2200 4856 2200 3000 c 0
 2200 1144 2368 -16 3200 -16 c 0
 4032 -16 4200 1144 4200 3000 c 0
 4200 4856 3952 6016 3200 6016 c 0
5040 -1928 m 1
 5040 -2000 l 1
 2776 -2000 2240 -1704 2240 80 c 1
 2880 -80 3512 -80 4120 80 c 1
 4120 -1376 4128 -1928 5040 -1928 c 1
EndSplineSet
EndChar

StartChar: R
Encoding: 82 82 29
GlifName: R_
Width: 6320
Flags: HMW
LayerCount: 2
Fore
SplineSet
3080 3064 m 2
 1560 3064 l 1
 1560 3120 l 1
 2680 3120 l 2
 3448 3120 3800 3488 3800 4520 c 0
 3800 5552 3448 5928 2680 5928 c 2
 120 5928 l 1
 120 6000 l 1
 3080 6000 l 2
 4528 6000 5560 5560 5560 4520 c 0
 5560 3480 4608 3064 3080 3064 c 2
120 72 m 1
 3280 72 l 1
 3280 0 l 1
 120 0 l 1
 120 72 l 1
840 6000 m 1
 2560 6000 l 1
 2560 0 l 1
 840 0 l 1
 840 6000 l 1
6240 120 m 1
 6112 48 5648 -80 5040 -80 c 0
 2536 -80 4688 3040 2720 3040 c 2
 1560 3040 l 1
 1560 3080 l 1
 3840 3080 l 2
 6344 3080 4792 80 5776 80 c 0
 5944 80 6104 136 6216 184 c 1
 6240 120 l 1
EndSplineSet
Substitution2: "'ss01' Style Set 1 lookup 2-1" R.alt
EndChar

StartChar: S
Encoding: 83 83 30
GlifName: S_
Width: 5080
Flags: HMW
LayerCount: 2
Fore
SplineSet
4440 4120 m 1
 4360 4120 l 1
 3880 5176 3272 5984 2328 5984 c 0
 1800 5984 1520 5632 1520 5160 c 0
 1520 3920 4760 4240 4760 1840 c 0
 4760 640 3728 -120 2600 -120 c 0
 1352 -120 752 1080 320 2040 c 1
 400 2040 l 1
 816 1144 1424 -32 2568 -32 c 0
 3256 -32 3640 448 3640 1000 c 0
 3640 2400 400 1800 400 4360 c 0
 400 5480 1328 6080 2296 6080 c 0
 3320 6080 3960 5248 4440 4120 c 1
4384 6080 m 1
 4440 6080 l 1
 4440 4120 l 1
 4248 4552 3680 5424 3400 5680 c 1
 4384 6080 l 1
376 -80 m 1
 320 -80 l 1
 320 2040 l 1
 552 1536 1168 576 1416 352 c 1
 376 -80 l 1
EndSplineSet
EndChar

StartChar: T
Encoding: 84 84 31
GlifName: T_
Width: 5800
Flags: HMW
LayerCount: 2
Fore
SplineSet
1160 72 m 1
 4640 72 l 1
 4640 0 l 1
 1160 0 l 1
 1160 72 l 1
2040 5960 m 1
 3760 5960 l 1
 3760 0 l 1
 2040 0 l 1
 2040 5960 l 1
4000 5928 m 2
 1800 5928 l 2
 1024 5928 432 4976 192 3960 c 1
 120 3960 l 1
 120 6000 l 1
 5680 6000 l 1
 5680 3960 l 1
 5608 3960 l 1
 5368 4976 4776 5928 4000 5928 c 2
EndSplineSet
EndChar

StartChar: U
Encoding: 85 85 32
GlifName: U_
Width: 6000
Flags: HMW
LayerCount: 2
Fore
SplineSet
4320 6000 m 1
 5880 6000 l 1
 5880 5928 l 1
 4320 5928 l 1
 4320 6000 l 1
120 6000 m 1
 3360 6000 l 1
 3360 5928 l 1
 120 5928 l 1
 120 6000 l 1
5040 6000 m 1
 5120 6000 l 1
 5120 1840 l 2
 5120 520 4504 -120 3160 -120 c 0
 1536 -120 840 456 840 1840 c 2
 840 6000 l 1
 2560 6000 l 1
 2560 1920 l 2
 2560 864 2704 48 3616 48 c 0
 4384 48 5040 560 5040 1840 c 2
 5040 6000 l 1
EndSplineSet
EndChar

StartChar: V
Encoding: 86 86 33
GlifName: V_
Width: 6560
Flags: HMW
LayerCount: 2
Fore
SplineSet
6480 5928 m 1
 4720 5928 l 1
 4720 6000 l 1
 6480 6000 l 1
 6480 5928 l 1
3520 5928 m 1
 80 5928 l 1
 80 6000 l 1
 3520 6000 l 1
 3520 5928 l 1
4104 1496 m 1
 5688 6000 l 1
 5776 6000 l 1
 3608 -120 l 1
 2760 -120 l 1
 640 6000 l 1
 2640 6000 l 1
 4104 1496 l 1
EndSplineSet
EndChar

StartChar: W
Encoding: 87 87 34
GlifName: W_
Width: 9840
Flags: HMW
LayerCount: 2
Fore
SplineSet
5384 3800 m 1
 3888 -80 l 1
 3160 -80 l 1
 632 6000 l 1
 2648 6000 l 1
 4448 1624 l 1
 5352 3952 l 1
 5384 3800 l 1
6160 3648 m 1
 6128 3792 l 1
 7032 6000 l 1
 7112 6000 l 1
 6160 3648 l 1
9760 5928 m 1
 8160 5928 l 1
 8160 6000 l 1
 9760 6000 l 1
 9760 5928 l 1
5448 6000 m 1
 7248 1624 l 1
 8960 6000 l 1
 9040 6000 l 1
 6688 -80 l 1
 6208 -80 l 1
 3672 6000 l 1
 5448 6000 l 1
7840 5928 m 1
 80 5928 l 1
 80 6000 l 1
 7840 6000 l 1
 7840 5928 l 1
EndSplineSet
EndChar

StartChar: X
Encoding: 88 88 35
GlifName: X_
Width: 6800
Flags: HMW
LayerCount: 2
Fore
SplineSet
3456 3016 m 1
 3352 3016 l 1
 5408 5984 l 1
 5496 5984 l 1
 3456 3016 l 1
992 0 m 1
 888 0 l 1
 3256 3336 l 1
 3360 3336 l 1
 992 0 l 1
3520 72 m 1
 6720 72 l 1
 6720 0 l 1
 3520 0 l 1
 3520 72 l 1
80 72 m 1
 2000 72 l 1
 2000 0 l 1
 80 0 l 1
 80 72 l 1
3560 5928 m 1
 360 5928 l 1
 360 6000 l 1
 3560 6000 l 1
 3560 5928 l 1
6280 5928 m 1
 4520 5928 l 1
 4520 6000 l 1
 6280 6000 l 1
 6280 5928 l 1
6208 0 m 1
 4288 0 l 1
 840 6000 l 1
 2728 6000 l 1
 6208 0 l 1
EndSplineSet
EndChar

StartChar: Y
Encoding: 89 89 36
GlifName: Y_
Width: 6120
Flags: HMW
LayerCount: 2
Fore
SplineSet
6040 5928 m 1
 4360 5928 l 1
 4360 6000 l 1
 6040 6000 l 1
 6040 5928 l 1
3360 5928 m 1
 80 5928 l 1
 80 6000 l 1
 3360 6000 l 1
 3360 5928 l 1
1560 72 m 1
 4800 72 l 1
 4800 0 l 1
 1560 0 l 1
 1560 72 l 1
3968 3192 m 1
 5296 5984 l 1
 5392 5984 l 1
 4000 3064 l 1
 4000 0 l 1
 2280 0 l 1
 2280 2880 l 1
 560 6000 l 1
 2560 6000 l 1
 3968 3192 l 1
EndSplineSet
EndChar

StartChar: Z
Encoding: 90 90 37
GlifName: Z_
Width: 5400
Flags: HMW
LayerCount: 2
Fore
SplineSet
240 6000 m 1
 5040 6000 l 1
 5040 5928 l 1
 2040 72 l 1
 3200 72 l 2
 4296 72 4728 744 5048 1760 c 1
 5120 1760 l 1
 5120 0 l 1
 80 0 l 1
 80 72 l 1
 3080 5928 l 1
 2160 5928 l 2
 1064 5928 632 5256 312 4400 c 1
 240 4400 l 1
 240 6000 l 1
EndSplineSet
EndChar

StartChar: a
Encoding: 97 97 38
GlifName: a
Width: 5072
VWidth: 9240
Flags: HMW
LayerCount: 2
Fore
SplineSet
5064 504 m 1
 4880 104 4384 -80 3800 -80 c 0
 3184 -80 2664 112 2664 664 c 2
 2664 2440 l 2
 2664 3136 2416 3656 1856 3656 c 0
 1528 3656 1240 3536 1112 3448 c 1
 1656 3640 2224 3360 2224 2864 c 0
 2224 2464 1792 2168 1352 2168 c 0
 872 2168 536 2480 536 2848 c 0
 536 3384 1232 3744 2120 3744 c 0
 3560 3744 4184 3248 4184 2440 c 2
 4184 432 l 2
 4184 272 4288 152 4480 152 c 0
 4608 152 4840 216 5008 528 c 1
 5064 504 l 1
2008 2048 m 2
 3080 2048 l 1
 3080 1968 l 1
 2568 1968 l 2
 2200 1968 1872 1560 1872 1064 c 0
 1872 672 1992 480 2192 480 c 0
 2352 480 2664 640 2664 1448 c 1
 2720 1448 l 1
 2720 456 2224 -80 1336 -80 c 0
 704 -80 256 312 256 904 c 0
 256 1576 872 2048 2008 2048 c 2
EndSplineSet
EndChar

StartChar: b
Encoding: 98 98 39
GlifName: b
Width: 5328
VWidth: 9240
Flags: HMW
LayerCount: 2
Fore
SplineSet
2120 1840 m 0
 2120 3056 2568 3752 3424 3752 c 0
 4296 3752 5120 3040 5120 1840 c 0
 5120 640 4296 -80 3424 -80 c 0
 2576 -80 2120 624 2120 1840 c 0
2176 1840 m 0
 2176 696 2664 104 3032 104 c 0
 3304 104 3400 608 3400 1840 c 0
 3400 3072 3304 3568 3032 3568 c 0
 2664 3568 2176 2984 2176 1840 c 0
656 5928 m 1
 96 5928 l 1
 96 6000 l 1
 2176 6000 l 1
 2176 0 l 1
 96 0 l 1
 96 72 l 1
 656 72 l 1
 656 5928 l 1
EndSplineSet
EndChar

StartChar: c
Encoding: 99 99 40
GlifName: c
Width: 4344
VWidth: 9240
Flags: HMW
LayerCount: 2
Fore
SplineSet
3640 3240 m 1
 3488 3424 3040 3664 2600 3664 c 0
 2048 3664 2016 2592 2016 1840 c 0
 2016 928 2192 80 2696 80 c 0
 3288 80 3760 496 3960 1144 c 1
 4040 1144 l 1
 3832 448 3328 -80 2360 -80 c 0
 1072 -80 216 480 216 1840 c 0
 216 3040 960 3760 2408 3760 c 0
 3304 3760 4096 3264 4096 2608 c 0
 4096 2120 3760 1832 3280 1832 c 0
 2840 1832 2424 2040 2424 2640 c 0
 2424 3160 2856 3400 3168 3400 c 0
 3416 3400 3544 3336 3640 3240 c 1
EndSplineSet
EndChar

StartChar: d
Encoding: 100 100 41
GlifName: d
Width: 5328
VWidth: 9240
Flags: HMW
LayerCount: 2
Fore
SplineSet
3216 1840 m 0
 3216 624 2768 -80 1912 -80 c 0
 1040 -80 216 640 216 1840 c 0
 216 3040 1040 3752 1912 3752 c 0
 2760 3752 3216 3056 3216 1840 c 0
3160 1840 m 0
 3160 3040 2648 3568 2304 3568 c 0
 2032 3568 1936 3104 1936 1840 c 0
 1936 576 2064 136 2336 136 c 0
 2680 136 3160 640 3160 1840 c 0
5240 72 m 1
 5240 0 l 1
 3160 0 l 1
 3160 5928 l 1
 2600 5928 l 1
 2600 6000 l 1
 4680 6000 l 1
 4680 72 l 1
 5240 72 l 1
EndSplineSet
EndChar

StartChar: e
Encoding: 101 101 42
GlifName: e
Width: 4328
VWidth: 9240
Flags: HMW
LayerCount: 2
Fore
SplineSet
752 2048 m 1
 752 2128 l 1
 2584 2128 l 1
 2576 2880 2568 3688 2256 3688 c 0
 1944 3688 1856 2912 1856 2000 c 0
 1856 848 1984 64 2616 64 c 0
 3288 64 3848 504 4048 1144 c 1
 4120 1144 l 1
 3912 448 3328 -80 2280 -80 c 0
 1072 -80 216 560 216 1840 c 0
 216 3120 1048 3760 2256 3760 c 0
 3448 3760 4112 2920 4112 2048 c 1
 752 2048 l 1
EndSplineSet
EndChar

StartChar: f
Encoding: 102 102 43
GlifName: f
Width: 3384
VWidth: 9240
Flags: HMW
LayerCount: 2
Fore
SplineSet
56 72 m 1
 3176 72 l 1
 3176 0 l 1
 56 0 l 1
 56 72 l 1
56 3680 m 1
 3336 3680 l 1
 3336 3608 l 1
 56 3608 l 1
 56 3680 l 1
4032 5552 m 1
 3912 5704 3648 6008 3104 6008 c 0
 2464 6008 2216 5336 2216 4320 c 2
 2216 0 l 1
 776 0 l 1
 776 4096 l 2
 776 5304 1792 6080 3072 6080 c 0
 3800 6080 4296 5584 4296 5048 c 0
 4296 4560 4000 4232 3520 4232 c 0
 3080 4232 2672 4504 2672 4984 c 0
 2672 5440 3032 5776 3440 5776 c 0
 3712 5776 3920 5664 4032 5552 c 1
EndSplineSet
EndChar

StartChar: g
Encoding: 103 103 44
GlifName: g
Width: 5360
VWidth: 9240
Flags: HMW
LayerCount: 2
Fore
SplineSet
352 496 m 0
 352 1152 1440 1344 2200 1344 c 1
 2192 1304 l 1
 1848 1304 1216 1224 1216 992 c 0
 1216 816 1632 792 2072 792 c 0
 2352 792 2656 800 2880 800 c 0
 3480 800 4296 432 4296 -656 c 0
 4296 -1624 3496 -2080 2216 -2080 c 0
 1232 -2080 96 -1840 96 -1128 c 0
 96 -448 1056 -368 1416 -368 c 2
 1496 -368 l 1
 1296 -472 1256 -816 1256 -912 c 0
 1256 -1616 1688 -1992 2296 -1992 c 0
 2936 -1992 3880 -1864 3880 -1152 c 0
 3880 -720 3376 -472 2856 -472 c 0
 2608 -472 2120 -472 1944 -472 c 0
 1224 -472 352 -240 352 496 c 0
1856 2520 m 0
 1856 1768 1896 1352 2128 1352 c 0
 2280 1352 2400 1768 2400 2520 c 0
 2400 3272 2280 3688 2128 3688 c 0
 1976 3688 1856 3272 1856 2520 c 0
296 2520 m 0
 296 3400 1240 3760 2128 3760 c 0
 3016 3760 3960 3400 3960 2520 c 0
 3960 1640 3016 1280 2128 1280 c 0
 1240 1280 296 1640 296 2520 c 0
5120 3208 m 1
 5048 3424 4808 3648 4400 3648 c 0
 3952 3648 3504 3432 3344 2736 c 1
 3280 2776 l 1
 3440 3504 3920 3720 4400 3720 c 0
 5048 3720 5312 3256 5312 2952 c 0
 5312 2432 4984 2272 4704 2272 c 0
 4424 2272 4104 2448 4104 2872 c 0
 4104 3176 4328 3448 4672 3448 c 0
 4896 3448 5072 3320 5120 3208 c 1
EndSplineSet
EndChar

StartChar: h
Encoding: 104 104 45
GlifName: h
Width: 5264
VWidth: 9240
Flags: HMW
LayerCount: 2
Fore
SplineSet
3096 2560 m 2
 3096 3232 3032 3320 2808 3320 c 0
 2440 3320 2176 2552 2176 1784 c 1
 2120 1784 l 1
 2120 2600 2336 3760 3480 3760 c 0
 4336 3760 4616 3248 4616 2552 c 2
 4616 0 l 1
 3096 0 l 1
 3096 2560 l 2
2776 72 m 1
 5176 72 l 1
 5176 0 l 1
 2776 0 l 1
 2776 72 l 1
96 72 m 1
 2496 72 l 1
 2496 0 l 1
 96 0 l 1
 96 72 l 1
656 5928 m 1
 96 5928 l 1
 96 6000 l 1
 2176 6000 l 1
 2176 0 l 1
 656 0 l 1
 656 5928 l 1
EndSplineSet
EndChar

StartChar: i
Encoding: 105 105 46
GlifName: i
Width: 2792
VWidth: 9240
Flags: HMW
LayerCount: 2
Fore
SplineSet
136 72 m 1
 2776 72 l 1
 2776 0 l 1
 136 0 l 1
 136 72 l 1
496 5200 m 0
 496 5704 872 6080 1376 6080 c 0
 1880 6080 2256 5704 2256 5200 c 0
 2256 4696 1880 4320 1376 4320 c 0
 872 4320 496 4696 496 5200 c 0
696 3608 m 1
 136 3608 l 1
 136 3680 l 1
 2216 3680 l 1
 2216 0 l 1
 696 0 l 1
 696 3608 l 1
EndSplineSet
EndChar

StartChar: j
Encoding: 106 106 47
GlifName: j
Width: 2880
VWidth: 9240
Flags: HMW
LayerCount: 2
Fore
SplineSet
632 5200 m 0
 632 5704 1008 6080 1512 6080 c 0
 2016 6080 2392 5704 2392 5200 c 0
 2392 4696 2016 4320 1512 4320 c 0
 1008 4320 632 4696 632 5200 c 0
2336 3680 m 1
 2336 -96 l 2
 2336 -1144 1320 -2080 120 -2080 c 0
 -688 -2080 -1344 -1656 -1344 -1056 c 0
 -1344 -576 -944 -232 -488 -232 c 0
 -48 -232 360 -504 360 -984 c 0
 360 -1424 32 -1752 -520 -1752 c 0
 -840 -1752 -1016 -1568 -1048 -1376 c 1
 -992 -1680 -568 -1984 -24 -1984 c 0
 936 -1984 792 -840 792 176 c 2
 816 3608 l 1
 96 3608 l 1
 96 3680 l 1
 2336 3680 l 1
EndSplineSet
EndChar

StartChar: k
Encoding: 107 107 48
GlifName: k
Width: 5512
VWidth: 9240
Flags: HMW
LayerCount: 2
Fore
SplineSet
5200 0 m 1
 3336 0 l 1
 1952 2168 l 1
 4288 3680 l 1
 4408 3680 l 1
 3168 2864 l 1
 5200 0 l 1
2888 72 m 1
 5504 72 l 1
 5504 0 l 1
 2888 0 l 1
 2888 72 l 1
4992 3608 m 1
 3208 3608 l 1
 3208 3680 l 1
 4992 3680 l 1
 4992 3608 l 1
96 72 m 1
 2656 72 l 1
 2656 0 l 1
 96 0 l 1
 96 72 l 1
816 5928 m 1
 96 5928 l 1
 96 6000 l 1
 2336 6000 l 1
 2336 0 l 1
 816 0 l 1
 816 5928 l 1
EndSplineSet
EndChar

StartChar: l
Encoding: 108 108 49
GlifName: l
Width: 3144
VWidth: 9240
Flags: HMW
LayerCount: 2
Fore
SplineSet
96 72 m 1
 3056 72 l 1
 3056 0 l 1
 96 0 l 1
 96 72 l 1
816 5928 m 1
 96 5928 l 1
 96 6000 l 1
 2336 6000 l 1
 2336 0 l 1
 816 0 l 1
 816 5928 l 1
EndSplineSet
EndChar

StartChar: m
Encoding: 109 109 50
GlifName: m
Width: 7384
VWidth: 9240
Flags: HMW
LayerCount: 2
Fore
SplineSet
4456 2552 m 2
 4456 0 l 1
 2936 0 l 1
 2936 2560 l 2
 2936 3232 2856 3352 2704 3352 c 0
 2424 3352 2176 2624 2176 1784 c 1
 2120 1784 l 1
 2120 2600 2256 3760 3400 3760 c 0
 4176 3760 4456 3248 4456 2552 c 2
96 72 m 1
 2456 72 l 1
 2456 0 l 1
 96 0 l 1
 96 72 l 1
2656 72 m 1
 4736 72 l 1
 4736 0 l 1
 2656 0 l 1
 2656 72 l 1
4936 72 m 1
 7296 72 l 1
 7296 0 l 1
 4936 0 l 1
 4936 72 l 1
656 3608 m 1
 96 3608 l 1
 96 3680 l 1
 2176 3680 l 1
 2176 0 l 1
 656 0 l 1
 656 3608 l 1
6736 2552 m 2
 6736 0 l 1
 5216 0 l 1
 5216 2560 l 2
 5216 3232 5136 3352 4984 3352 c 0
 4704 3352 4456 2624 4456 1784 c 1
 4408 1784 l 1
 4408 2600 4520 3760 5680 3760 c 0
 6456 3760 6736 3248 6736 2552 c 2
EndSplineSet
EndChar

StartChar: n
Encoding: 110 110 51
GlifName: n
Width: 5264
VWidth: 9240
Flags: HMW
LayerCount: 2
Fore
SplineSet
3096 2560 m 2
 3096 3232 3032 3320 2808 3320 c 0
 2440 3320 2176 2552 2176 1784 c 1
 2120 1784 l 1
 2120 2600 2336 3760 3480 3760 c 0
 4336 3760 4616 3248 4616 2552 c 2
 4616 0 l 1
 3096 0 l 1
 3096 2560 l 2
2776 72 m 1
 5176 72 l 1
 5176 0 l 1
 2776 0 l 1
 2776 72 l 1
96 72 m 1
 2496 72 l 1
 2496 0 l 1
 96 0 l 1
 96 72 l 1
656 3608 m 1
 96 3608 l 1
 96 3680 l 1
 2176 3680 l 1
 2176 0 l 1
 656 0 l 1
 656 3608 l 1
EndSplineSet
EndChar

StartChar: o
Encoding: 111 111 52
GlifName: o
Width: 4568
VWidth: 9240
Flags: HMW
LayerCount: 2
Fore
SplineSet
1776 1840 m 0
 1776 688 1976 -8 2288 -8 c 0
 2600 -8 2800 688 2800 1840 c 0
 2800 2992 2600 3688 2288 3688 c 0
 1976 3688 1776 2992 1776 1840 c 0
216 1840 m 0
 216 2880 1000 3760 2288 3760 c 0
 3576 3760 4360 2880 4360 1840 c 0
 4360 800 3576 -80 2288 -80 c 0
 1000 -80 216 800 216 1840 c 0
EndSplineSet
EndChar

StartChar: p
Encoding: 112 112 53
GlifName: p
Width: 5328
VWidth: 9240
Flags: HMW
LayerCount: 2
Fore
SplineSet
2120 1840 m 0
 2120 3056 2568 3752 3424 3752 c 0
 4296 3752 5120 3040 5120 1840 c 0
 5120 640 4296 -80 3424 -80 c 0
 2576 -80 2120 624 2120 1840 c 0
2176 1840 m 0
 2176 640 2696 104 3016 104 c 0
 3320 104 3400 672 3400 1840 c 0
 3400 3008 3336 3568 3032 3568 c 0
 2688 3568 2176 3040 2176 1840 c 0
96 -1928 m 1
 2736 -1928 l 1
 2736 -2000 l 1
 96 -2000 l 1
 96 -1928 l 1
656 3608 m 1
 96 3608 l 1
 96 3680 l 1
 2176 3680 l 1
 2176 -2000 l 1
 656 -2000 l 1
 656 3608 l 1
EndSplineSet
EndChar

StartChar: q
Encoding: 113 113 54
GlifName: q
Width: 5328
VWidth: 9240
Flags: HMW
LayerCount: 2
Fore
SplineSet
3216 1840 m 0
 3216 624 2768 -80 1912 -80 c 0
 1040 -80 216 640 216 1840 c 0
 216 3040 1040 3752 1912 3752 c 0
 2760 3752 3216 3056 3216 1840 c 0
3160 1840 m 0
 3160 3040 2648 3568 2304 3568 c 0
 2032 3568 1936 3008 1936 1840 c 0
 1936 672 2032 136 2304 136 c 0
 2712 136 3160 640 3160 1840 c 0
5240 -1928 m 1
 5240 -2000 l 1
 2600 -2000 l 1
 2600 -1928 l 1
 5240 -1928 l 1
5240 3680 m 1
 5240 3608 l 1
 4680 3608 l 1
 4680 -2000 l 1
 3160 -2000 l 1
 3160 3680 l 1
 5240 3680 l 1
EndSplineSet
EndChar

StartChar: r
Encoding: 114 114 55
GlifName: r
Width: 4320
VWidth: 9240
Flags: HMW
LayerCount: 2
Fore
SplineSet
3984 3192 m 1
 3880 3488 3536 3680 3224 3680 c 0
 2272 3680 2176 2616 2176 1784 c 1
 2120 1784 l 1
 2120 2760 2208 3760 3256 3760 c 0
 3784 3760 4312 3344 4312 2712 c 0
 4312 2240 3992 1824 3448 1824 c 0
 2944 1824 2576 2168 2576 2664 c 0
 2576 3384 3472 3728 3984 3192 c 1
96 72 m 1
 2736 72 l 1
 2736 0 l 1
 96 0 l 1
 96 72 l 1
656 3608 m 1
 96 3608 l 1
 96 3680 l 1
 2176 3680 l 1
 2176 0 l 1
 656 0 l 1
 656 3608 l 1
EndSplineSet
EndChar

StartChar: s
Encoding: 115 115 56
GlifName: s
Width: 3704
VWidth: 9240
Flags: HMW
LayerCount: 2
Fore
SplineSet
3056 2880 m 1
 2968 3016 2680 3344 2584 3424 c 1
 3192 3760 l 1
 3248 3760 l 1
 3248 2640 l 1
 3176 2640 l 1
 3056 2880 l 1
3232 2640 m 1
 3176 2640 l 1
 2856 3120 2448 3672 1712 3672 c 0
 1336 3672 1056 3504 1056 3224 c 0
 1056 2512 3536 2800 3536 1216 c 0
 3536 264 2704 -80 2008 -80 c 0
 1176 -80 656 416 296 1280 c 1
 352 1280 l 1
 736 456 1256 0 1976 0 c 0
 2472 0 2792 192 2792 472 c 0
 2792 1160 352 872 352 2520 c 0
 352 3272 952 3752 1712 3752 c 0
 2496 3752 2912 3168 3232 2640 c 1
336 -80 m 1
 280 -80 l 1
 280 1280 l 1
 352 1280 l 1
 456 944 l 1
 552 768 856 416 944 336 c 1
 336 -80 l 1
EndSplineSet
EndChar

StartChar: t
Encoding: 116 116 57
GlifName: t
Width: 3208
VWidth: 9240
Flags: HMW
LayerCount: 2
Fore
SplineSet
16 3680 m 1
 2976 3680 l 1
 2976 3608 l 1
 16 3608 l 1
 16 3680 l 1
3216 816 m 1
 3024 304 2536 -56 1728 -56 c 0
 832 -56 600 288 600 968 c 2
 600 4480 l 1
 1080 4480 1720 4520 2120 4720 c 1
 2120 808 l 2
 2120 408 2208 208 2424 208 c 0
 2648 208 2976 400 3152 840 c 1
 3216 816 l 1
EndSplineSet
EndChar

StartChar: u
Encoding: 117 117 58
GlifName: u
Width: 5264
VWidth: 9240
Flags: HMW
LayerCount: 2
Fore
SplineSet
2176 3680 m 1
 2176 1120 l 2
 2176 448 2240 360 2464 360 c 0
 2832 360 3096 1128 3096 1896 c 1
 3152 1896 l 1
 3152 1080 2936 -80 1792 -80 c 0
 936 -80 656 432 656 1128 c 2
 656 3608 l 1
 96 3608 l 1
 96 3680 l 1
 2176 3680 l 1
4616 72 m 1
 5176 72 l 1
 5176 0 l 1
 3096 0 l 1
 3096 3608 l 1
 2616 3608 l 1
 2616 3680 l 1
 4616 3680 l 1
 4616 72 l 1
EndSplineSet
EndChar

StartChar: v
Encoding: 118 118 59
GlifName: v
Width: 4792
VWidth: 9240
Flags: HMW
LayerCount: 2
Fore
SplineSet
4832 3608 m 1
 3280 3608 l 1
 3280 3680 l 1
 4832 3680 l 1
 4832 3608 l 1
2688 3608 m 1
 -40 3608 l 1
 -40 3680 l 1
 2688 3680 l 1
 2688 3608 l 1
3040 1096 m 1
 4064 3680 l 1
 4168 3680 l 1
 2664 -80 l 1
 2024 -80 l 1
 480 3680 l 1
 2160 3680 l 1
 3040 1096 l 1
EndSplineSet
EndChar

StartChar: w
Encoding: 119 119 60
GlifName: w
Width: 7080
VWidth: 9240
Flags: HMW
LayerCount: 2
Fore
SplineSet
2848 3608 m 1
 -40 3608 l 1
 -40 3680 l 1
 2848 3680 l 1
 2848 3608 l 1
7120 3608 m 1
 5408 3608 l 1
 5408 3680 l 1
 7120 3680 l 1
 7120 3608 l 1
2760 1184 m 1
 3760 3760 l 1
 4840 3760 l 1
 5528 1392 l 1
 6288 3680 l 1
 6376 3680 l 1
 5120 -80 l 1
 4472 -80 l 1
 3432 2688 l 1
 2352 -80 l 1
 1704 -80 l 1
 480 3680 l 1
 2112 3680 l 1
 2760 1184 l 1
EndSplineSet
EndChar

StartChar: x
Encoding: 120 120 61
GlifName: x
Width: 4752
VWidth: 9240
Flags: HMW
LayerCount: 2
Fore
SplineSet
1984 72 m 1
 4712 72 l 1
 4712 0 l 1
 1984 0 l 1
 1984 72 l 1
40 72 m 1
 1552 72 l 1
 1552 0 l 1
 40 0 l 1
 40 72 l 1
2728 3608 m 1
 40 3608 l 1
 40 3680 l 1
 2728 3680 l 1
 2728 3608 l 1
4632 3608 m 1
 3240 3608 l 1
 3240 3680 l 1
 4632 3680 l 1
 4632 3608 l 1
4352 0 m 1
 2592 0 l 1
 480 3680 l 1
 2160 3680 l 1
 4352 0 l 1
664 0 m 1
 560 0 l 1
 3928 3680 l 1
 4032 3680 l 1
 664 0 l 1
EndSplineSet
EndChar

StartChar: y
Encoding: 121 121 62
GlifName: y
Width: 5104
VWidth: 9240
Flags: HMW
LayerCount: 2
Fore
SplineSet
3248 3608 m 1
 -120 3608 l 1
 -120 3680 l 1
 3248 3680 l 1
 3248 3608 l 1
5224 3608 m 1
 3664 3608 l 1
 3664 3680 l 1
 5224 3680 l 1
 5224 3608 l 1
3504 1456 m 1
 2616 -232 l 1
 472 3680 l 1
 2312 3680 l 1
 3504 1456 l 1
2024 -1336 m 1
 4576 3680 l 1
 4680 3680 l 1
 2040 -1480 l 2
 1880 -1784 1608 -2008 1224 -2008 c 0
 784 -2008 416 -1712 416 -1248 c 0
 416 -824 760 -432 1256 -432 c 0
 1704 -432 2080 -848 2024 -1336 c 1
EndSplineSet
EndChar

StartChar: z
Encoding: 122 122 63
GlifName: z
Width: 4024
VWidth: 9240
Flags: HMW
LayerCount: 2
Fore
SplineSet
1704 3608 m 2
 1112 3608 592 3112 352 2304 c 1
 280 2304 l 1
 280 3680 l 1
 3808 3680 l 1
 3808 3608 l 1
 1720 72 l 1
 2328 72 l 2
 3104 72 3624 480 3864 1472 c 1
 3936 1472 l 1
 3936 0 l 1
 56 0 l 1
 56 72 l 1
 2136 3608 l 1
 1704 3608 l 2
EndSplineSet
EndChar

StartChar: comma
Encoding: 44 44 65
GlifName: comma
Width: 2680
Flags: HMW
LayerCount: 2
Fore
SplineSet
320 872 m 0
 320 1376 792 1824 1336 1824 c 0
 1888 1824 2376 1336 2376 512 c 0
 2376 -528 1504 -1248 304 -1248 c 1
 304 -1176 l 1
 1432 -1176 2440 -512 2264 824 c 1
 2184 360 1784 -80 1256 -80 c 0
 704 -80 320 368 320 872 c 0
EndSplineSet
EndChar

StartChar: exclam
Encoding: 33 33 67
GlifName: exclam
Width: 3520
Flags: HMW
LayerCount: 2
Fore
SplineSet
2704 4952 m 0
 2616 4024 1792 3264 1792 2464 c 1
 1712 2464 l 1
 1712 3264 888 4024 800 4952 c 0
 792 5008 800 5056 800 5104 c 0
 800 5632 1136 6064 1752 6064 c 0
 2368 6064 2712 5632 2712 5104 c 0
 2712 5056 2712 5008 2704 4952 c 0
EndSplineSet
Refer: 1 46 N 1 0 0 1 480 0 2
EndChar

StartChar: quotesingle
Encoding: 39 39 70
GlifName: quotesingle
Width: 2560
Flags: HMW
LayerCount: 2
Fore
SplineSet
2152 5128 m 24
 2064 4528 1320 4224 1320 3344 c 1
 1240 3344 l 1
 1240 4224 496 4528 408 5128 c 24
 400 5184 400 5224 400 5272 c 0
 400 5744 808 6080 1280 6080 c 0
 1752 6080 2160 5744 2160 5272 c 0
 2160 5224 2160 5184 2152 5128 c 24
EndSplineSet
EndChar

StartChar: question
Encoding: 63 63 75
GlifName: question
Width: 4960
Flags: HMW
LayerCount: 2
Fore
SplineSet
2016 2936 m 1
 2632 3184 2792 3736 2792 4480 c 0
 2792 5232 2728 5944 2096 5944 c 0
 1408 5944 776 5400 672 4976 c 1
 720 5080 976 5280 1320 5280 c 0
 1792 5280 2192 5000 2192 4520 c 0
 2192 4000 1856 3672 1336 3672 c 0
 776 3672 480 4040 480 4568 c 0
 480 5304 1232 6080 2448 6080 c 0
 3736 6080 4560 5440 4560 4480 c 0
 4560 3560 3624 2960 2096 2888 c 1
 2096 2232 l 1
 2016 2232 l 1
 2016 2936 l 1
EndSplineSet
Refer: 1 46 N 1 0 0 1 1032 0 2
EndChar

StartChar: parenleft
Encoding: 40 40 76
GlifName: parenleft
Width: 3056
Flags: HMW
LayerCount: 2
Fore
SplineSet
2936 -1304 m 1
 2904 -1360 l 1
 1600 -800 520 736 520 2600 c 0
 520 4464 1600 5840 2904 6400 c 1
 2936 6344 l 1
 2344 5944 2240 4136 2240 2600 c 0
 2240 1064 2344 -904 2936 -1304 c 1
EndSplineSet
EndChar

StartChar: at
Encoding: 64 64 79
GlifName: at
Width: 8080
VWidth: 9240
Flags: HMW
LayerCount: 2
Fore
SplineSet
4384 2912 m 0
 4384 1616 3904 560 2864 560 c 0
 2120 560 1632 1008 1632 1840 c 0
 1632 3040 2464 4232 3504 4232 c 0
 4280 4232 4384 3568 4384 2912 c 0
4312 2768 m 0
 4312 3104 4312 3704 4136 3704 c 0
 3872 3704 3400 2912 3400 1920 c 0
 3400 1384 3520 1096 3712 1096 c 0
 3960 1096 4312 1840 4312 2768 c 0
4160 1680 m 2
 4736 4160 l 1
 6416 4160 l 1
 5824 1608 l 2
 5736 1216 5616 784 5960 784 c 0
 6704 784 7568 1816 7568 3208 c 0
 7568 4640 6664 6248 4672 6248 c 0
 2392 6248 512 4152 512 1688 c 0
 512 -768 1928 -1640 3352 -1640 c 0
 4656 -1640 5536 -1248 6224 -464 c 1
 6280 -512 l 1
 5608 -1296 4656 -1712 3352 -1712 c 0
 1888 -1712 440 -824 440 1688 c 0
 440 4192 2336 6320 4680 6320 c 0
 6704 6320 7640 4672 7640 3208 c 0
 7640 1848 6896 544 5288 544 c 0
 4096 544 4048 1184 4160 1680 c 2
EndSplineSet
EndChar

StartChar: dollar
Encoding: 36 36 80
GlifName: dollar
Width: 5080
Flags: HMW
LayerCount: 2
Fore
SplineSet
2576 6640 m 1
 2664 6640 l 1
 2664 -640 l 1
 2576 -640 l 1
 2576 6640 l 1
2024 6640 m 1
 2112 6640 l 1
 2112 -640 l 1
 2024 -640 l 1
 2024 6640 l 1
4240 5192 m 1
 4008 5672 3264 5984 2552 5984 c 0
 2024 5984 1520 5728 1520 5208 c 0
 1520 3872 4760 4240 4760 1840 c 0
 4760 720 3888 -120 2520 -120 c 0
 952 -120 200 640 200 1320 c 0
 200 1848 528 2216 1040 2216 c 0
 1440 2216 1792 1880 1792 1368 c 0
 1792 888 1320 688 968 688 c 0
 688 688 464 824 368 1040 c 1
 544 528 1216 -32 2440 -32 c 0
 3288 -32 3640 352 3640 952 c 0
 3640 2448 400 1800 400 4360 c 0
 400 5400 1488 6080 2456 6080 c 0
 3400 6080 4440 5648 4440 4840 c 0
 4440 4312 4152 4024 3640 4024 c 0
 3240 4024 2888 4264 2888 4752 c 0
 2888 5208 3256 5472 3608 5472 c 0
 3848 5472 4072 5392 4240 5192 c 1
EndSplineSet
EndChar

StartChar: numbersign
Encoding: 35 35 81
GlifName: numbersign
Width: 5040
Flags: HMW
LayerCount: 2
Fore
SplineSet
240 2048 m 1
 4560 2048 l 1
 4560 1976 l 1
 240 1976 l 1
 240 2048 l 1
480 4144 m 1
 4800 4144 l 1
 4800 4072 l 1
 480 4072 l 1
 480 4144 l 1
3616 6032 m 1
 3688 6040 l 1
 2888 -40 l 1
 2816 -48 l 1
 3616 6032 l 1
2072 6040 m 1
 2144 6040 l 1
 1344 -40 l 1
 1272 -40 l 1
 2072 6040 l 1
EndSplineSet
EndChar

StartChar: slash
Encoding: 47 47 82
GlifName: slash
Width: 4160
Flags: HMW
LayerCount: 2
Fore
SplineSet
3768 6240 m 1
 3840 6240 l 1
 392 -1200 l 1
 320 -1200 l 1
 3768 6240 l 1
EndSplineSet
EndChar

StartChar: percent
Encoding: 37 37 83
GlifName: percent
Width: 8320
Flags: HMW
LayerCount: 2
Fore
SplineSet
5800 1680 m 0
 5800 368 5928 -8 6120 -8 c 0
 6312 -8 6440 368 6440 1680 c 0
 6440 2992 6312 3368 6120 3368 c 0
 5928 3368 5800 2992 5800 1680 c 0
4200 1680 m 0
 4200 2824 5216 3440 6120 3440 c 0
 7024 3440 8040 2824 8040 1680 c 0
 8040 536 6864 -80 6120 -80 c 0
 5216 -80 4200 536 4200 1680 c 0
6192 6000 m 1
 6280 6000 l 1
 2128 0 l 1
 2040 0 l 1
 6192 6000 l 1
1880 4320 m 0
 1880 3008 2008 2632 2200 2632 c 0
 2392 2632 2520 3008 2520 4320 c 0
 2520 5632 2392 6008 2200 6008 c 0
 2008 6008 1880 5632 1880 4320 c 0
280 4320 m 0
 280 5464 1296 6080 2200 6080 c 0
 3104 6080 4120 5464 4120 4320 c 0
 4120 3176 2944 2560 2200 2560 c 0
 1296 2560 280 3176 280 4320 c 0
EndSplineSet
EndChar

StartChar: hyphen
Encoding: 45 45 85
GlifName: hyphen
Width: 2880
Flags: HMW
LayerCount: 2
Fore
SplineSet
480 2240 m 1
 2400 2240 l 1
 2400 2160 l 1
 480 2160 l 1
 480 2240 l 1
EndSplineSet
EndChar

StartChar: plus
Encoding: 43 43 87
GlifName: plus
Width: 4240
Flags: HMW
LayerCount: 2
Fore
SplineSet
2080 880 m 1
 2080 4160 l 1
 2160 4160 l 1
 2160 880 l 1
 2080 880 l 1
480 2568 m 1
 3760 2568 l 1
 3760 2488 l 1
 480 2488 l 1
 480 2568 l 1
EndSplineSet
EndChar

StartChar: less
Encoding: 60 60 89
GlifName: less
Width: 4480
Flags: HMW
LayerCount: 2
Fore
SplineSet
480 3072 m 1
 480 3144 l 1
 4000 4800 l 1
 4000 4728 l 1
 480 3072 l 1
480 3056 m 1
 480 3128 l 1
 4000 1472 l 1
 4000 1400 l 1
 480 3056 l 1
EndSplineSet
EndChar

StartChar: backslash
Encoding: 92 92 91
GlifName: backslash
Width: 4160
Flags: HMW
LayerCount: 2
Fore
SplineSet
408 6240 m 1
 3840 -1200 l 1
 3752 -1200 l 1
 320 6240 l 1
 408 6240 l 1
EndSplineSet
EndChar

StartChar: bracketleft
Encoding: 91 91 92
GlifName: bracketleft
Width: 3080
Flags: HMW
LayerCount: 2
Fore
SplineSet
2840 -1200 m 1
 440 -1200 l 1
 440 -1128 l 1
 2840 -1128 l 1
 2840 -1200 l 1
2840 6168 m 1
 440 6168 l 1
 440 6240 l 1
 2840 6240 l 1
 2840 6168 l 1
2120 6240 m 1
 2120 -1200 l 1
 440 -1200 l 1
 440 6240 l 1
 2120 6240 l 1
EndSplineSet
EndChar

StartChar: braceleft
Encoding: 123 123 93
GlifName: braceleft
Width: 3136
VWidth: 9240
Flags: HMW
LayerCount: 2
Fore
SplineSet
2896 6240 m 1
 2896 6168 l 1
 2400 6168 2144 5680 2144 5176 c 0
 2144 4728 2416 4328 2416 3688 c 0
 2416 3024 1992 2664 440 2504 c 1
 440 2560 l 1
 680 2640 920 2840 920 3168 c 0
 920 3672 440 4032 440 4968 c 0
 440 5840 1016 6240 2896 6240 c 1
2896 -1200 m 1
 1016 -1200 440 -792 440 80 c 0
 440 1016 920 1376 920 1880 c 0
 920 2208 680 2400 440 2480 c 1
 440 2544 l 1
 1992 2384 2416 2024 2416 1360 c 0
 2416 720 2144 320 2144 -128 c 0
 2144 -632 2400 -1128 2896 -1128 c 1
 2896 -1200 l 1
EndSplineSet
EndChar

StartChar: bar
Encoding: 124 124 96
GlifName: bar
Width: 1840
VWidth: 9240
Flags: HMW
LayerCount: 2
Fore
SplineSet
880 6240 m 1
 960 6240 l 1
 960 -2000 l 1
 880 -2000 l 1
 880 6240 l 1
EndSplineSet
EndChar

StartChar: cent
Encoding: 162 162 98
GlifName: cent
Width: 4344
VWidth: 9240
Flags: HMW
LayerCount: 2
Fore
SplineSet
2472 4440 m 1
 2472 -680 l 1
 2408 -680 l 1
 2408 4440 l 1
 2472 4440 l 1
EndSplineSet
Refer: 40 99 N 1 0 0 1 0 0 2
EndChar

StartChar: sterling
Encoding: 163 163 99
GlifName: sterling
Width: 5496
VWidth: 9240
Flags: HMW
LayerCount: 2
Fore
SplineSet
5296 2216 m 1
 5296 256 4808 -240 3696 -240 c 0
 2600 -240 2000 240 1496 240 c 0
 1168 240 736 80 656 -160 c 1
 608 -160 l 1
 688 432 1672 1736 2576 1736 c 0
 3216 1736 3584 1464 4032 1464 c 0
 4632 1464 5224 1560 5224 2216 c 1
 5296 2216 l 1
3720 3200 m 1
 3720 3120 l 1
 120 3120 l 1
 120 3200 l 1
 3720 3200 l 1
624 4400 m 0
 624 5520 1544 6080 3072 6080 c 0
 4368 6080 5216 5224 5216 4568 c 0
 5216 4000 4856 3552 4336 3552 c 0
 3816 3552 3328 3920 3328 4480 c 0
 3328 5000 3792 5400 4264 5400 c 0
 4640 5400 4824 5192 4904 5088 c 1
 4648 5536 4032 5928 3392 5928 c 0
 2840 5928 2472 5632 2472 4880 c 0
 2472 4088 2920 3880 2920 3120 c 0
 2920 1600 544 1640 648 -160 c 1
 576 -160 l 1
 424 952 1272 1576 1272 2088 c 0
 1272 3000 624 3480 624 4400 c 0
EndSplineSet
EndChar

StartChar: section
Encoding: 167 167 101
GlifName: section
Width: 4048
VWidth: 9240
Flags: HMW
LayerCount: 2
Fore
SplineSet
1320 5272 m 0
 1320 4424 3664 4344 3664 3120 c 0
 3664 2464 3192 2328 2840 2120 c 1
 2768 2120 l 1
 2912 2240 3088 2288 3088 2576 c 0
 3088 3304 576 3248 576 4704 c 0
 576 5536 1256 6080 2176 6080 c 0
 2800 6080 3728 5880 3728 5032 c 0
 3728 4624 3448 4296 3008 4296 c 0
 2608 4296 2336 4616 2336 4984 c 0
 2336 5320 2640 5640 3032 5640 c 0
 3280 5640 3448 5520 3528 5416 c 1
 3280 5856 2688 6000 2176 6000 c 0
 1760 6000 1320 5664 1320 5272 c 0
3712 1296 m 0
 3712 464 3032 -80 1952 -80 c 0
 1248 -80 240 200 240 968 c 0
 240 1376 520 1704 960 1704 c 0
 1360 1704 1632 1384 1632 1016 c 0
 1632 680 1344 392 952 392 c 0
 648 392 488 552 440 656 c 1
 632 216 1304 0 1952 0 c 0
 2616 0 2968 416 2968 728 c 0
 2968 1576 464 1536 464 2760 c 0
 464 3416 936 3712 1288 3920 c 1
 1360 3920 l 1
 1232 3824 1048 3704 1048 3464 c 0
 1048 2736 3712 2752 3712 1296 c 0
EndSplineSet
EndChar

StartChar: asciitilde
Encoding: 126 126 104
GlifName: asciitilde
Width: 5504
VWidth: 9240
Flags: HMW
LayerCount: 2
Fore
SplineSet
1576 3256 m 0
 1152 3256 872 3080 872 2744 c 1
 800 2744 l 1
 800 3664 1200 4320 1992 4320 c 0
 2872 4320 3032 3568 3848 3568 c 0
 4352 3568 4632 3744 4632 4080 c 1
 4704 4080 l 1
 4704 3160 4304 2504 3512 2504 c 0
 2496 2504 2448 3256 1576 3256 c 0
EndSplineSet
EndChar

StartChar: copyright
Encoding: 169 169 105
GlifName: copyright
Width: 6960
Flags: HMW
LayerCount: 2
Fore
SplineSet
400 3000 m 0
 400 4704 1776 6080 3480 6080 c 0
 5184 6080 6560 4704 6560 3000 c 0
 6560 1296 5184 -80 3480 -80 c 0
 1776 -80 400 1296 400 3000 c 0
472 3000 m 0
 472 1344 1824 -8 3480 -8 c 0
 5136 -8 6488 1344 6488 3000 c 0
 6488 4656 5136 6008 3480 6008 c 0
 1824 6008 472 4656 472 3000 c 0
EndSplineSet
Refer: 14 67 N 0.6 0 0 0.6 1536 1200 2
EndChar

StartChar: registered
Encoding: 174 174 106
GlifName: registered
Width: 6960
Flags: HMW
LayerCount: 2
Fore
SplineSet
400 3000 m 0
 400 4704 1776 6080 3480 6080 c 0
 5184 6080 6560 4704 6560 3000 c 0
 6560 1296 5184 -80 3480 -80 c 0
 1776 -80 400 1296 400 3000 c 0
472 3000 m 0
 472 1344 1824 -8 3480 -8 c 0
 5136 -8 6488 1344 6488 3000 c 0
 6488 4656 5136 6008 3480 6008 c 0
 1824 6008 472 4656 472 3000 c 0
EndSplineSet
Refer: 29 82 N 0.6 0 0 0.6 1664 1184 2
EndChar

StartChar: logicalnot
Encoding: 172 172 107
GlifName: logicalnot
Width: 3888
Flags: HMW
LayerCount: 2
Fore
SplineSet
3336 4848 m 1
 480 4848 l 1
 480 4920 l 1
 3408 4920 l 1
 3408 3304 l 1
 3336 3304 l 1
 3336 4848 l 1
EndSplineSet
EndChar

StartChar: guillemotleft
Encoding: 171 171 108
GlifName: guillemotleft
Width: 6040
Flags: HMW
LayerCount: 2
Fore
SplineSet
4408 3104 m 1
 5600 1200 l 1
 5560 1160 l 1
 2440 3048 l 1
 2440 3152 l 1
 5560 5040 l 1
 5600 5000 l 1
 4408 3104 l 1
2008 3104 m 1
 3360 1200 l 1
 3320 1160 l 1
 200 3048 l 1
 200 3152 l 1
 3320 5040 l 1
 3360 5000 l 1
 2008 3104 l 1
EndSplineSet
EndChar

StartChar: mu
Encoding: 181 181 111
GlifName: mu
Width: 4920
VWidth: 9240
Flags: HMW
LayerCount: 2
Fore
SplineSet
2008 -984 m 0
 2272 -984 2480 -1216 2480 -1520 c 0
 2480 -1832 2312 -2080 1728 -2080 c 0
 1168 -2080 688 -1688 688 -968 c 2
 688 2568 l 1
 752 2568 l 1
 752 -968 l 2
 752 -1656 1200 -2048 1840 -2008 c 1
 1840 -2008 l 1
 1640 -1896 1528 -1696 1528 -1456 c 0
 1528 -1192 1744 -984 2008 -984 c 0
EndSplineSet
Refer: 58 117 N 1 0 0 1 0 0 2
EndChar

StartChar: asciicircum
Encoding: 94 94 113
GlifName: asciicircum
Width: 4360
Flags: HMW
LayerCount: 2
Fore
SplineSet
2176 5784 m 1
 840 5000 l 1
 800 5040 l 1
 1920 6160 l 1
 2440 6160 l 1
 3560 5040 l 1
 3520 5000 l 1
 2176 5784 l 1
EndSplineSet
EndChar

StartChar: degree
Encoding: 176 176 115
GlifName: degree
Width: 2560
Flags: HMW
LayerCount: 2
Fore
SplineSet
320 5440 m 0
 320 5968 752 6400 1280 6400 c 0
 1808 6400 2240 5968 2240 5440 c 0
 2240 4912 1808 4480 1280 4480 c 0
 752 4480 320 4912 320 5440 c 0
592 5440 m 0
 592 5048 888 4752 1280 4752 c 0
 1672 4752 1968 5048 1968 5440 c 0
 1968 5832 1672 6128 1280 6128 c 0
 888 6128 592 5832 592 5440 c 0
EndSplineSet
EndChar

StartChar: onequarter
Encoding: 188 188 119
GlifName: onequarter
Width: 5608
Flags: HMW
LayerCount: 2
Fore
SplineSet
4136 5200 m 1
 4208 5200 l 1
 392 -800 l 1
 320 -800 l 1
 4136 5200 l 1
EndSplineSet
Refer: 6 52 N 0.6 0 0 0.6 2160 -824 2
Refer: 3 49 N 0.6 0 0 0.6 -64 2848 2
EndChar

StartChar: onehalf
Encoding: 189 189 120
GlifName: onehalf
Width: 5840
Flags: HMW
LayerCount: 2
Fore
SplineSet
4136 5200 m 1
 4208 5200 l 1
 392 -800 l 1
 320 -800 l 1
 4136 5200 l 1
EndSplineSet
Refer: 4 50 N 0.6 0 0 0.6 2728 -808 2
Refer: 3 49 N 0.6 0 0 0.6 -64 2848 2
EndChar

StartChar: threequarters
Encoding: 190 190 121
GlifName: threequarters
Width: 6088
Flags: HMW
LayerCount: 2
Fore
SplineSet
4616 5200 m 1
 4688 5200 l 1
 872 -800 l 1
 800 -800 l 1
 4616 5200 l 1
EndSplineSet
Refer: 5 51 N 0.6 0 0 0.6 40 2832 2
Refer: 6 52 N 0.6 0 0 0.6 2640 -824 2
EndChar

StartChar: grave
Encoding: 96 96 123
GlifName: grave
Width: 3400
Flags: HMW
LayerCount: 2
Fore
SplineSet
1200 5440 m 2
 808 5360 440 5648 440 6040 c 0
 440 6432 880 6800 1280 6624 c 2
 2944 5880 l 1
 2920 5800 l 1
 1200 5440 l 2
EndSplineSet
EndChar

StartChar: acute
Encoding: 180 180 124
GlifName: acute
Width: 3400
Flags: HMW
LayerCount: 2
Fore
SplineSet
2200 5440 m 2
 480 5800 l 1
 456 5880 l 1
 2120 6624 l 2
 2520 6800 2960 6432 2960 6040 c 0
 2960 5648 2592 5360 2200 5440 c 2
EndSplineSet
EndChar

StartChar: cedilla
Encoding: 184 184 128
GlifName: cedilla
Width: 4400
Flags: HMW
LayerCount: 2
Fore
SplineSet
2312 -1120 m 0
 2312 -696 2016 -632 1736 -632 c 1
 2456 328 l 1
 2560 328 l 1
 2080 -312 l 1
 2992 -336 3520 -512 3520 -960 c 0
 3520 -1360 3136 -1760 1688 -1760 c 1
 1688 -1688 l 1
 2160 -1688 2312 -1440 2312 -1120 c 0
EndSplineSet
EndChar

StartChar: ring
Encoding: 730 730 271
GlifName: ring
Width: 2560
VWidth: 0
Flags: HMW
LayerCount: 2
Fore
SplineSet
400 5440 m 0
 400 5848 712 6160 1280 6160 c 0
 1848 6160 2160 5848 2160 5440 c 0
 2160 5032 1848 4720 1280 4720 c 0
 712 4720 400 5032 400 5440 c 0
1080 5440 m 0
 1080 4976 1144 4792 1280 4792 c 0
 1416 4792 1480 4976 1480 5440 c 0
 1480 5904 1416 6088 1280 6088 c 0
 1144 6088 1080 5904 1080 5440 c 0
EndSplineSet
EndChar

StartChar: tilde
Encoding: 732 732 272
GlifName: tilde
Width: 3584
VWidth: 0
Flags: HMW
LayerCount: 2
Fore
SplineSet
904 5112 m 0
 624 5112 472 4896 472 4720 c 1
 400 4720 l 1
 400 5400 560 6056 1192 6056 c 0
 1912 6056 2072 5424 2680 5424 c 0
 2960 5424 3112 5640 3112 5816 c 1
 3184 5816 l 1
 3184 5056 3184 4480 2472 4480 c 0
 1776 4480 1568 5112 904 5112 c 0
EndSplineSet
EndChar

StartChar: AE
Encoding: 198 198 274
GlifName: A_E_
Width: 8720
Flags: HMW
LayerCount: 2
Fore
SplineSet
4200 6000 m 1
 4288 6000 l 1
 880 0 l 1
 776 0 l 1
 4200 6000 l 1
120 72 m 1
 1880 72 l 1
 1880 0 l 1
 120 0 l 1
 120 72 l 1
1960 2000 m 1
 4280 2000 l 1
 4280 1920 l 1
 1960 1920 l 1
 1960 2000 l 1
4200 6000 m 1
 5920 6000 l 1
 5920 0 l 1
 4200 0 l 1
 4200 6000 l 1
4200 6000 m 1
 8400 6000 l 1
 8400 4360 l 1
 8328 4360 l 1
 8088 5216 7336 5928 6480 5928 c 2
 4200 5928 l 1
 4200 6000 l 1
8480 0 m 1
 3480 0 l 1
 3480 72 l 1
 6400 72 l 2
 7416 72 8168 784 8408 1800 c 1
 8480 1800 l 1
 8480 0 l 1
7208 1984 m 1
 6968 2520 6456 3064 6000 3064 c 2
 5520 3064 l 1
 5520 3144 l 1
 6000 3144 l 2
 6456 3144 6968 3648 7208 4184 c 1
 7280 4184 l 1
 7280 1984 l 1
 7208 1984 l 1
EndSplineSet
EndChar

StartChar: ae
Encoding: 230 230 277
GlifName: ae
Width: 7224
VWidth: 9240
Flags: HMW
LayerCount: 2
Fore
SplineSet
560 2848 m 0
 560 3384 1256 3744 2144 3744 c 0
 3184 3744 3968 3248 3968 2440 c 1
 4008 1448 l 1
 4008 456 2888 -80 1920 -80 c 0
 808 -80 280 312 280 904 c 0
 280 1576 896 2088 2032 2088 c 2
 3824 2088 l 1
 3824 2016 l 1
 2592 2016 l 2
 2224 2016 1896 1560 1896 904 c 0
 1896 368 2048 24 2248 24 c 0
 2464 24 2688 400 2688 1048 c 2
 2688 2440 l 2
 2688 2976 2520 3664 1880 3664 c 0
 1608 3664 1240 3552 1080 3400 c 1
 1632 3648 2248 3360 2248 2864 c 0
 2248 2464 1816 2168 1376 2168 c 0
 896 2168 560 2480 560 2848 c 0
5488 2120 m 1
 5480 2872 5472 3688 5160 3688 c 0
 4848 3688 4760 2912 4760 2000 c 0
 4760 1088 4824 56 5488 56 c 0
 6208 56 6752 496 6952 1144 c 1
 7024 1144 l 1
 6816 448 6232 -80 5184 -80 c 0
 4216 -80 3440 560 3440 1840 c 0
 3440 3120 4192 3760 5160 3760 c 0
 6352 3760 7016 2920 7016 2048 c 1
 4152 2048 l 1
 4152 2120 l 1
 5488 2120 l 1
EndSplineSet
EndChar

StartChar: uni2010
Encoding: 8208 8208 279
GlifName: uni2010
Width: 2880
Flags: HMW
LayerCount: 2
Fore
SplineSet
480 2240 m 1
 2400 2240 l 1
 2400 2160 l 1
 480 2160 l 1
 480 2240 l 1
EndSplineSet
EndChar

StartChar: uni2011
Encoding: 8209 8209 280
GlifName: uni2011
Width: 2296
Flags: HMW
LayerCount: 2
Fore
SplineSet
480 2240 m 1
 1816 2240 l 1
 1816 2160 l 1
 480 2160 l 1
 480 2240 l 1
EndSplineSet
EndChar

StartChar: figuredash
Encoding: 8210 8210 282
GlifName: figuredash
Width: 3560
Flags: HMW
LayerCount: 2
Fore
SplineSet
480 2240 m 1
 3080 2240 l 1
 3080 2160 l 1
 480 2160 l 1
 480 2240 l 1
EndSplineSet
EndChar

StartChar: perthousand
Encoding: 8240 8240 285
GlifName: perthousand
Width: 12400
Flags: HMW
LayerCount: 2
Fore
SplineSet
9880 1680 m 0
 9880 368 10008 -8 10200 -8 c 0
 10392 -8 10520 368 10520 1680 c 0
 10520 2992 10392 3368 10200 3368 c 0
 10008 3368 9880 2992 9880 1680 c 0
8280 1680 m 0
 8280 2824 9296 3440 10200 3440 c 0
 11104 3440 12120 2824 12120 1680 c 0
 12120 536 10944 -80 10200 -80 c 0
 9296 -80 8280 536 8280 1680 c 0
5800 1680 m 0
 5800 368 5928 -8 6120 -8 c 0
 6312 -8 6440 368 6440 1680 c 0
 6440 2992 6312 3368 6120 3368 c 0
 5928 3368 5800 2992 5800 1680 c 0
4200 1680 m 0
 4200 2824 5216 3440 6120 3440 c 0
 7024 3440 8040 2824 8040 1680 c 0
 8040 536 6864 -80 6120 -80 c 0
 5216 -80 4200 536 4200 1680 c 0
6192 6000 m 1
 6280 6000 l 1
 2128 0 l 1
 2040 0 l 1
 6192 6000 l 1
1880 4320 m 0
 1880 3008 2008 2632 2200 2632 c 0
 2392 2632 2520 3008 2520 4320 c 0
 2520 5632 2392 6008 2200 6008 c 0
 2008 6008 1880 5632 1880 4320 c 0
280 4320 m 0
 280 5464 1296 6080 2200 6080 c 0
 3104 6080 4120 5464 4120 4320 c 0
 4120 3176 2944 2560 2200 2560 c 0
 1296 2560 280 3176 280 4320 c 0
EndSplineSet
EndChar

StartChar: uni2031
Encoding: 8241 8241 286
GlifName: uni2031
Width: 16480
Flags: HMW
LayerCount: 2
Fore
SplineSet
13960 1680 m 0
 13960 368 14088 -8 14280 -8 c 0
 14472 -8 14600 368 14600 1680 c 0
 14600 2992 14472 3368 14280 3368 c 0
 14088 3368 13960 2992 13960 1680 c 0
12360 1680 m 0
 12360 2824 13376 3440 14280 3440 c 0
 15184 3440 16200 2824 16200 1680 c 0
 16200 536 15024 -80 14280 -80 c 0
 13376 -80 12360 536 12360 1680 c 0
9880 1680 m 0
 9880 368 10008 -8 10200 -8 c 0
 10392 -8 10520 368 10520 1680 c 0
 10520 2992 10392 3368 10200 3368 c 0
 10008 3368 9880 2992 9880 1680 c 0
8280 1680 m 0
 8280 2824 9296 3440 10200 3440 c 0
 11104 3440 12120 2824 12120 1680 c 0
 12120 536 10944 -80 10200 -80 c 0
 9296 -80 8280 536 8280 1680 c 0
5800 1680 m 0
 5800 368 5928 -8 6120 -8 c 0
 6312 -8 6440 368 6440 1680 c 0
 6440 2992 6312 3368 6120 3368 c 0
 5928 3368 5800 2992 5800 1680 c 0
4200 1680 m 0
 4200 2824 5216 3440 6120 3440 c 0
 7024 3440 8040 2824 8040 1680 c 0
 8040 536 6864 -80 6120 -80 c 0
 5216 -80 4200 536 4200 1680 c 0
6192 6000 m 1
 6280 6000 l 1
 2128 0 l 1
 2040 0 l 1
 6192 6000 l 1
1880 4320 m 0
 1880 3008 2008 2632 2200 2632 c 0
 2392 2632 2520 3008 2520 4320 c 0
 2520 5632 2392 6008 2200 6008 c 0
 2008 6008 1880 5632 1880 4320 c 0
280 4320 m 0
 280 5464 1296 6080 2200 6080 c 0
 3104 6080 4120 5464 4120 4320 c 0
 4120 3176 2944 2560 2200 2560 c 0
 1296 2560 280 3176 280 4320 c 0
EndSplineSet
EndChar

StartChar: uniFB00
Encoding: 64256 64256 290
GlifName: uniF_B_00
Width: 6160
VWidth: 9240
Flags: HMW
LayerCount: 2
Fore
SplineSet
80 72 m 1
 5920 72 l 1
 5920 0 l 1
 80 0 l 1
 80 72 l 1
80 3680 m 1
 6080 3680 l 1
 6080 3608 l 1
 80 3608 l 1
 80 3680 l 1
4208 5064 m 1
 4104 5336 3648 5592 3256 5592 c 0
 2616 5592 2240 4936 2240 3920 c 2
 2240 0 l 1
 800 0 l 1
 800 3696 l 2
 800 4904 1816 5680 3176 5680 c 0
 3904 5680 4480 5184 4480 4648 c 0
 4480 4160 4184 3832 3704 3832 c 0
 3264 3832 2856 4104 2856 4584 c 0
 2856 5064 3168 5376 3600 5376 c 0
 3944 5376 4208 5064 4208 5064 c 1
6808 5448 m 1
 6720 5696 6376 6000 5896 6000 c 0
 5256 6000 4960 5336 4960 4320 c 2
 4960 0 l 1
 3520 0 l 1
 3520 4096 l 2
 3520 5304 4536 6080 5816 6080 c 0
 6544 6080 7040 5584 7040 5048 c 0
 7040 4560 6744 4232 6264 4232 c 0
 5824 4232 5416 4504 5416 4984 c 0
 5416 5464 5768 5776 6200 5776 c 0
 6488 5776 6752 5600 6808 5448 c 1
EndSplineSet
Ligature2: "'liga' Standard Ligatures lookup 0-1" f f
LCarets2: 1 0
EndChar

StartChar: uniFB01
Encoding: 64257 64257 291
GlifName: uniF_B_01
Width: 5600
VWidth: 9240
Flags: HMW
LayerCount: 2
Fore
SplineSet
800 4096 m 2
 800 5384 1816 6080 3416 6080 c 0
 4304 6080 4880 5584 4880 5048 c 0
 4880 4560 4584 4232 4104 4232 c 0
 3664 4232 3256 4504 3256 4984 c 0
 3256 5464 3608 5760 4040 5760 c 0
 4328 5760 4552 5624 4632 5400 c 1
 4496 5760 4024 6008 3416 6008 c 0
 2536 6008 2240 5336 2240 4320 c 2
 2240 0 l 1
 800 0 l 1
 800 4096 l 2
80 72 m 1
 5440 72 l 1
 5440 0 l 1
 80 0 l 1
 80 72 l 1
3360 3608 m 1
 80 3608 l 1
 80 3680 l 1
 4880 3680 l 1
 4880 0 l 1
 3360 0 l 1
 3360 3608 l 1
EndSplineSet
Ligature2: "'liga' Standard Ligatures lookup 0-1" f i
LCarets2: 1 0
EndChar

StartChar: uniFB02
Encoding: 64258 64258 292
GlifName: uniF_B_02
Width: 6240
VWidth: 9240
Flags: HMW
LayerCount: 2
Fore
SplineSet
80 72 m 1
 6120 72 l 1
 6120 0 l 1
 80 0 l 1
 80 72 l 1
80 3680 m 1
 3360 3680 l 1
 3360 3608 l 1
 80 3608 l 1
 80 3680 l 1
3880 5840 m 1
 5400 6160 l 1
 5400 0 l 1
 3880 0 l 1
 3880 5840 l 1
4112 5408 m 1
 4024 5672 3664 6000 3176 6000 c 0
 2536 6000 2240 5336 2240 4320 c 2
 2240 0 l 1
 800 0 l 1
 800 4096 l 2
 800 5304 1816 6080 3096 6080 c 0
 3824 6080 4320 5584 4320 5048 c 0
 4320 4560 4024 4232 3544 4232 c 0
 3104 4232 2696 4504 2696 4984 c 0
 2696 5464 3008 5776 3440 5776 c 0
 3880 5776 4112 5408 4112 5408 c 1
EndSplineSet
Ligature2: "'liga' Standard Ligatures lookup 0-1" f l
LCarets2: 1 0
EndChar

StartChar: uniFB03
Encoding: 64259 64259 293
GlifName: uniF_B_03
Width: 8160
VWidth: 9240
Flags: HMW
LayerCount: 2
Fore
SplineSet
3360 4096 m 2
 3360 5384 4376 6080 5976 6080 c 0
 6864 6080 7440 5584 7440 5048 c 0
 7440 4560 7144 4232 6664 4232 c 0
 6224 4232 5816 4504 5816 4984 c 0
 5816 5464 6152 5760 6584 5760 c 0
 6936 5760 7136 5592 7192 5400 c 1
 7048 5752 6584 6000 5976 6000 c 0
 5096 6000 4800 5336 4800 4320 c 2
 4800 0 l 1
 3360 0 l 1
 3360 4096 l 2
80 72 m 1
 8000 72 l 1
 8000 0 l 1
 80 0 l 1
 80 72 l 1
800 3696 m 2
 800 4896 1816 5680 3176 5680 c 0
 3904 5680 4480 5184 4480 4648 c 0
 4480 4160 4184 3832 3704 3832 c 0
 3264 3832 2856 4104 2856 4584 c 0
 2856 5064 3168 5376 3600 5376 c 0
 3944 5376 4152 5160 4152 5160 c 1
 4000 5392 3664 5592 3256 5592 c 0
 2616 5592 2240 4936 2240 3920 c 2
 2240 0 l 1
 800 0 l 1
 800 3696 l 2
5920 3608 m 1
 80 3608 l 1
 80 3680 l 1
 7440 3680 l 1
 7440 0 l 1
 5920 0 l 1
 5920 3608 l 1
EndSplineSet
Ligature2: "'liga' Standard Ligatures lookup 0-1" f f i
LCarets2: 2 0 0
EndChar

StartChar: uniFB04
Encoding: 64260 64260 294
GlifName: uniF_B_04
Width: 8960
VWidth: 9240
Flags: HMW
LayerCount: 2
Fore
SplineSet
80 72 m 1
 8840 72 l 1
 8840 0 l 1
 80 0 l 1
 80 72 l 1
80 3680 m 1
 6080 3680 l 1
 6080 3608 l 1
 80 3608 l 1
 80 3680 l 1
6600 5840 m 1
 8120 6160 l 1
 8120 0 l 1
 6600 0 l 1
 6600 5840 l 1
4160 5160 m 1
 4008 5392 3648 5592 3256 5592 c 0
 2616 5592 2240 4936 2240 3920 c 2
 2240 0 l 1
 800 0 l 1
 800 3696 l 2
 800 4896 1816 5680 3176 5680 c 0
 3904 5680 4480 5184 4480 4648 c 0
 4480 4160 4184 3832 3704 3832 c 0
 3264 3832 2856 4104 2856 4584 c 0
 2856 5064 3168 5376 3600 5376 c 0
 3888 5376 4160 5160 4160 5160 c 1
6808 5456 m 1
 6688 5784 6264 6008 5896 6008 c 0
 5256 6008 4960 5336 4960 4320 c 2
 4960 0 l 1
 3520 0 l 1
 3520 4096 l 2
 3520 5304 4536 6080 5816 6080 c 0
 6544 6080 7040 5584 7040 5048 c 0
 7040 4560 6744 4232 6264 4232 c 0
 5824 4232 5416 4504 5416 4984 c 0
 5416 5464 5728 5776 6160 5776 c 0
 6600 5776 6808 5456 6808 5456 c 1
EndSplineSet
Ligature2: "'liga' Standard Ligatures lookup 0-1" f f l
LCarets2: 2 0 0
EndChar

StartChar: ogonek
Encoding: 731 731 295
GlifName: ogonek
Width: 4400
Flags: HMW
LayerCount: 2
Fore
SplineSet
3304 -1064 m 1
 3184 -1288 3032 -1648 2224 -1648 c 0
 1576 -1648 1120 -1440 1120 -960 c 0
 1120 -320 2064 144 2792 344 c 1
 2808 296 l 1
 2720 240 2504 -96 2504 -648 c 0
 2504 -1184 2672 -1392 2864 -1392 c 0
 3032 -1392 3144 -1248 3248 -1040 c 1
 3304 -1064 l 1
EndSplineSet
EndChar

StartChar: dotlessi
Encoding: 305 305 296
GlifName: dotlessi
Width: 2960
VWidth: 9240
Flags: HMW
LayerCount: 2
Fore
SplineSet
160 72 m 1
 2800 72 l 1
 2800 0 l 1
 160 0 l 1
 160 72 l 1
720 3608 m 1
 160 3608 l 1
 160 3680 l 1
 2240 3680 l 1
 2240 0 l 1
 720 0 l 1
 720 3608 l 1
EndSplineSet
EndChar

StartChar: uni0237
Encoding: 567 567 297
GlifName: uni0237
Width: 2936
VWidth: 9240
Flags: HMW
LayerCount: 2
Fore
SplineSet
2360 3680 m 1
 2360 -96 l 2
 2360 -1144 1344 -2080 144 -2080 c 0
 -664 -2080 -1320 -1664 -1320 -1056 c 0
 -1320 -568 -928 -232 -464 -232 c 0
 -24 -232 384 -504 384 -984 c 0
 384 -1440 72 -1752 -496 -1752 c 0
 -816 -1752 -992 -1568 -1024 -1376 c 1
 -968 -1680 -544 -1984 0 -1984 c 0
 960 -1984 816 -840 816 176 c 2
 840 3608 l 1
 120 3608 l 1
 120 3680 l 1
 2360 3680 l 1
EndSplineSet
EndChar

StartChar: kgreenlandic
Encoding: 312 312 306
GlifName: kgreenlandic
Width: 5784
VWidth: 9240
Flags: HMW
LayerCount: 2
Fore
SplineSet
5224 0 m 1
 3360 0 l 1
 1976 2168 l 1
 4312 3680 l 1
 4424 3680 l 1
 3192 2864 l 1
 5224 0 l 1
2912 72 m 1
 5528 72 l 1
 5528 0 l 1
 2912 0 l 1
 2912 72 l 1
5016 3608 m 1
 3232 3608 l 1
 3232 3680 l 1
 5016 3680 l 1
 5016 3608 l 1
120 72 m 1
 2680 72 l 1
 2680 0 l 1
 120 0 l 1
 120 72 l 1
840 3608 m 1
 120 3608 l 1
 120 3680 l 1
 2360 3680 l 1
 2360 0 l 1
 840 0 l 1
 840 3608 l 1
EndSplineSet
EndChar

StartChar: breve
Encoding: 728 728 307
GlifName: breve
Width: 2560
VWidth: 9240
Flags: HMW
LayerCount: 2
Fore
SplineSet
312 6072 m 1
 312 5720 848 5640 1280 5640 c 0
 1712 5640 2248 5720 2248 6072 c 1
 2320 6072 l 1
 2320 5024 1920 4560 1280 4560 c 0
 640 4560 240 5024 240 6072 c 1
 312 6072 l 1
EndSplineSet
EndChar

StartChar: thorn
Encoding: 254 254 318
GlifName: thorn
Width: 5384
VWidth: 9240
Flags: HMW
LayerCount: 2
Fore
SplineSet
2144 1840 m 0
 2144 3056 2592 3752 3448 3752 c 0
 4320 3752 5144 3040 5144 1840 c 0
 5144 640 4320 -80 3448 -80 c 0
 2600 -80 2144 624 2144 1840 c 0
2200 1840 m 0
 2200 640 2720 104 3040 104 c 0
 3344 104 3424 672 3424 1840 c 0
 3424 3008 3360 3568 3056 3568 c 0
 2712 3568 2200 3040 2200 1840 c 0
120 -1928 m 1
 2760 -1928 l 1
 2760 -2000 l 1
 120 -2000 l 1
 120 -1928 l 1
680 5928 m 1
 120 5928 l 1
 120 6000 l 1
 2200 6000 l 1
 2200 -2000 l 1
 680 -2000 l 1
 680 5928 l 1
EndSplineSet
EndChar

StartChar: Thorn
Encoding: 222 222 319
GlifName: T_horn
Width: 5880
Flags: HMW
LayerCount: 2
Fore
SplineSet
840 6000 m 1
 2560 6000 l 1
 2560 0 l 1
 840 0 l 1
 840 6000 l 1
120 72 m 1
 3280 72 l 1
 3280 0 l 1
 120 0 l 1
 120 72 l 1
120 6000 m 1
 3280 6000 l 1
 3280 5928 l 1
 120 5928 l 1
 120 6000 l 1
3440 1440 m 2
 2400 1440 l 1
 2400 1512 l 1
 2880 1512 l 2
 3648 1512 3760 2408 3760 3120 c 0
 3760 3832 3648 4728 2880 4728 c 2
 2400 4728 l 1
 2400 4800 l 1
 3440 4800 l 2
 4888 4800 5600 4160 5600 3120 c 0
 5600 2080 4888 1440 3440 1440 c 2
EndSplineSet
EndChar

StartChar: Lslash
Encoding: 321 321 324
GlifName: L_slash
Width: 5280
Flags: HMW
LayerCount: 2
Fore
SplineSet
120 2880 m 1
 3680 4640 l 1
 3680 4552 l 1
 120 2792 l 1
 120 2880 l 1
EndSplineSet
Refer: 23 76 N 1 0 0 1 0 0 2
EndChar

StartChar: lslash
Encoding: 322 322 325
GlifName: lslash
Width: 3144
VWidth: 9240
Flags: HMW
LayerCount: 2
Fore
SplineSet
96 2880 m 1
 3176 4640 l 1
 3176 4552 l 1
 96 2792 l 1
 96 2880 l 1
EndSplineSet
Refer: 49 108 N 1 0 0 1 0 0 2
EndChar

StartChar: eth
Encoding: 240 240 329
GlifName: eth
Width: 5280
VWidth: 9240
Flags: HMW
LayerCount: 2
Fore
SplineSet
1200 5040 m 1
 4960 5040 l 1
 4960 4968 l 1
 1200 4968 l 1
 1200 5040 l 1
4880 2480 m 0
 4880 800 3896 -80 2528 -80 c 0
 1160 -80 240 800 240 2000 c 0
 240 3360 1264 3960 2232 3960 c 0
 2968 3960 3096 3256 3096 2240 c 1
 3040 2240 l 1
 3040 3440 2784 3784 2520 3784 c 0
 2208 3784 2080 3472 2080 2000 c 0
 2080 688 2112 -8 2504 -8 c 0
 2896 -8 3040 768 3040 2240 c 1
 3064 2768 l 1
 3064 4144 2312 6032 840 6032 c 1
 840 6080 l 1
 3176 6080 4880 4568 4880 2480 c 0
EndSplineSet
EndChar

StartChar: OE
Encoding: 338 338 330
GlifName: O_E_
Width: 8280
Flags: HMW
LayerCount: 2
Fore
SplineSet
3280 5928 m 1025,0,0
2200 3000 m 0,0,0
 2200 1304 2528 72 3280 72 c 1,0,0
 3040 0 l 1,0,0
 1416 0 320 1216 320 3000 c 0,0,0
 320 4784 1416 6000 3040 6000 c 1,0,0
 3280 5928 l 1,0,0
 2528 5928 2200 4696 2200 3000 c 0,0,0
EndSplineSet
Refer: 16 69 N 1 0 0 1 2920 0 2
EndChar

StartChar: germandbls
Encoding: 223 223 332
GlifName: germandbls
Width: 6888
VWidth: 9240
Flags: HMW
LayerCount: 2
Fore
SplineSet
3704 3224 m 1
 3704 3280 l 1
 4416 3280 4560 4056 4560 4568 c 0
 4560 5144 4376 6016 3624 6016 c 0
 2712 6016 2520 4984 2520 3848 c 2
 2520 0 l 1
 840 0 l 1
 840 3928 l 2
 840 5472 2400 6080 3704 6080 c 0
 4848 6080 6328 5632 6328 4648 c 0
 6328 3688 5312 3224 3704 3224 c 1
120 72 m 1
 3240 72 l 1
 3240 0 l 1
 120 0 l 1
 120 72 l 1
6568 1520 m 0
 6568 400 5456 -80 4328 -80 c 0
 3440 -80 2824 512 2824 1408 c 0
 2824 1976 3280 2248 3720 2248 c 0
 4120 2248 4552 2008 4552 1480 c 0
 4552 984 4088 720 3696 720 c 0
 3416 720 3048 888 2968 1160 c 1
 3016 488 3600 24 4128 24 c 0
 4680 24 4800 768 4800 1280 c 0
 4800 2032 4736 3208 3704 3208 c 1
 3704 3264 l 1
 5632 3264 6568 2560 6568 1520 c 0
EndSplineSet
EndChar

StartChar: circumflex
Encoding: 710 710 335
GlifName: circumflex
Width: 3720
Flags: HMW
LayerCount: 2
Fore
SplineSet
1856 5400 m 1
 440 4840 l 1
 400 4880 l 1
 1440 6160 l 1
 2280 6160 l 1
 3320 4880 l 1
 3280 4840 l 1
 1856 5400 l 1
EndSplineSet
EndChar

StartChar: caron
Encoding: 711 711 336
GlifName: caron
Width: 3720
Flags: HMW
LayerCount: 2
Fore
SplineSet
1864 5720 m 1
 3280 6280 l 1
 3320 6240 l 1
 2280 4960 l 1
 1440 4960 l 1
 400 6240 l 1
 440 6280 l 1
 1864 5720 l 1
EndSplineSet
EndChar

StartChar: pi
Encoding: 960 960 337
GlifName: pi
Width: 5448
VWidth: 9240
Flags: HMW
LayerCount: 2
Fore
SplineSet
5168 824 m 1
 4984 264 4648 -80 3904 -80 c 0
 3208 -80 2768 192 2768 744 c 2
 2768 3360 l 1
 4288 3360 l 1
 4288 632 l 2
 4288 472 4360 304 4600 304 c 0
 4776 304 4968 472 5120 856 c 1
 5168 824 l 1
1152 -80 m 0
 664 -80 280 184 280 624 c 0
 280 1568 1896 1056 1896 2232 c 2
 1896 3600 l 1
 2344 3600 l 1
 2344 1944 l 2
 2344 680 1936 -80 1152 -80 c 0
5008 3680 m 1
 5008 2160 l 1
 400 2160 l 1
 400 1560 l 1
 328 1560 l 1
 328 3680 l 1
 5008 3680 l 1
EndSplineSet
EndChar

StartChar: uni1E9E
Encoding: 7838 7838 338
GlifName: uni1E_9E_
Width: 7848
VWidth: 9240
Flags: HMW
LayerCount: 2
Fore
SplineSet
120 72 m 1
 3320 72 l 1
 3320 0 l 1
 120 0 l 1
 120 72 l 1
5600 3064 m 1
 5256 3120 4288 3312 3944 3320 c 1
 5928 5808 l 1
 5704 5888 5256 5992 4744 5992 c 0
 3032 5992 2600 5064 2600 3448 c 2
 2600 0 l 1
 840 0 l 1
 840 3528 l 2
 840 5312 2560 6080 4744 6080 c 0
 5968 6080 6968 5552 7288 5208 c 1
 5600 3064 l 1
3248 1128 m 1
 3392 568 4032 48 4808 48 c 0
 5560 48 5760 688 5760 1680 c 0
 5760 2512 5296 3248 3944 3248 c 1
 3944 3320 l 1
 6512 3320 7528 2760 7528 1720 c 0
 7528 600 6416 -80 5128 -80 c 0
 3752 -80 3080 752 3080 1488 c 0
 3080 2056 3480 2448 4000 2448 c 0
 4480 2448 4832 2096 4832 1568 c 0
 4832 1072 4408 720 3936 720 c 0
 3592 720 3336 952 3248 1128 c 1
EndSplineSet
EndChar

StartChar: uni203D
Encoding: 8253 8253 339
GlifName: uni203D_
Width: 5760
Flags: HMW
LayerCount: 2
Fore
SplineSet
3568 4432 m 0
 3480 3664 2816 2784 2816 2224 c 1
 2736 2224 l 1
 2736 2784 2232 3664 2144 4432 c 0
 2136 4488 2136 4536 2136 4584 c 0
 2136 4808 2320 5184 2856 5184 c 0
 3392 5184 3576 4808 3576 4584 c 0
 3576 4536 3576 4488 3568 4432 c 0
480 4568 m 0
 480 5304 1312 6080 2848 6080 c 0
 4056 6080 5360 5520 5360 4400 c 0
 5360 3280 3904 2680 2776 2680 c 1
 2776 2736 l 1
 3392 2736 3992 3640 3992 4480 c 0
 3992 5232 3536 5944 2664 5944 c 0
 1496 5944 808 5392 680 4920 c 1
 728 5080 992 5280 1336 5280 c 0
 1808 5280 2032 4800 2032 4520 c 0
 2032 3960 1616 3672 1256 3672 c 0
 856 3672 480 4000 480 4568 c 0
EndSplineSet
Refer: 1 46 N 1 0 0 1 1432 0 2
EndChar

StartChar: R.alt
Encoding: 65536 -1 340
GlifName: R_.alt
Width: 6240
Flags: HMW
LayerCount: 2
Fore
SplineSet
3080 3064 m 2
 1560 3064 l 1
 1560 3120 l 1
 2680 3120 l 2
 3448 3120 3800 3488 3800 4520 c 0
 3800 5552 3448 5928 2680 5928 c 2
 120 5928 l 1
 120 6000 l 1
 3080 6000 l 2
 4528 6000 5560 5560 5560 4520 c 0
 5560 3480 4608 3064 3080 3064 c 2
120 72 m 1
 3280 72 l 1
 3280 0 l 1
 120 0 l 1
 120 72 l 1
840 6000 m 1
 2560 6000 l 1
 2560 0 l 1
 840 0 l 1
 840 6000 l 1
6160 0 m 1
 6032 0 5248 0 4960 0 c 0
 2616 0 4688 3040 2640 3040 c 2
 1560 3040 l 1
 1560 3080 l 1
 3760 3080 l 2
 6424 3080 4736 72 5880 72 c 0
 6048 72 6048 72 6160 72 c 1
 6160 0 l 1
EndSplineSet
EndChar

StartChar: J.alt
Encoding: 65537 -1 341
GlifName: J_.alt
Width: 5808
Flags: HMW
LayerCount: 2
Back
SplineSet
2328 6000 m 5
 4848 6000 l 5
 4848 5840 l 5
 2328 5840 l 5
 2328 6000 l 5
3288 6000 m 5
 4048 6000 l 5
 4048 2240 l 6
 4048 960 3416 -80 2128 -80 c 4
 1192 -80 800 600 800 1160 c 4
 800 1656 1096 1920 1416 1920 c 4
 1696 1920 1944 1776 1944 1408 c 4
 1944 1128 1688 904 1416 904 c 4
 1248 904 1048 1008 968 1144 c 5
 976 656 1280 80 2128 80 c 4
 3096 80 3288 880 3288 2000 c 6
 3288 6000 l 5
EndSplineSet
Fore
SplineSet
2128 6000 m 1
 5688 6000 l 1
 5688 5928 l 1
 2128 5928 l 1
 2128 6000 l 1
3168 6000 m 1
 4888 6000 l 1
 4888 1360 l 1
 4408 400 3696 -240 2168 -240 c 0
 992 -240 120 600 120 1480 c 0
 120 2216 656 2640 1216 2640 c 0
 1736 2640 2144 2256 2144 1688 c 0
 2144 1168 1744 736 1160 736 c 0
 688 736 416 968 264 1192 c 1
 416 448 1208 -144 2008 -144 c 0
 2736 -144 3168 400 3168 1520 c 2
 3168 6000 l 1
EndSplineSet
EndChar

StartChar: four.alt
Encoding: 65538 -1 342
GlifName: four.alt
Width: 5720
VWidth: 9240
Flags: HMW
LayerCount: 2
Fore
SplineSet
5200 72 m 1
 5200 0 l 1
 2120 0 l 1
 2120 72 l 1
 5200 72 l 1
4600 3984 m 1
 4600 -8 l 1
 2880 -8 l 1
 2880 3424 l 1
 3360 3424 4280 3744 4600 3984 c 1
256 1600 m 1
 5320 1600 l 1
 5320 1520 l 1
 120 1520 l 1
 1240 3120 2400 4800 2560 6000 c 1
 4464 6000 l 1
 4312 4440 1384 3152 256 1600 c 1
EndSplineSet
EndChar

StartChar: fj.lig
Encoding: 65539 -1 343
GlifName: fj.lig
Width: 5416
VWidth: 9240
Flags: HMW
LayerCount: 2
Back
SplineSet
80 160 m 5
 2960 160 l 5
 2960 0 l 5
 80 0 l 5
 80 160 l 5
800 4096 m 2
 800 5384 1816 6080 3416 6080 c 0
 4304 6080 4880 5584 4880 5048 c 0
 4880 4560 4584 4232 4104 4232 c 0
 3664 4232 3256 4504 3256 4984 c 0
 3256 5464 3568 5760 4000 5760 c 0
 4192 5760 4296 5696 4296 5696 c 1
 4168 5776 3872 5912 3416 5912 c 0
 2536 5912 2240 5336 2240 4320 c 2
 2240 0 l 1
 800 0 l 1
 800 4096 l 2
4880 3680 m 1
 4880 -96 l 2
 4880 -1144 3864 -2080 2664 -2080 c 0
 1856 -2080 1200 -1704 1200 -1088 c 0
 1200 -600 1576 -232 2056 -232 c 0
 2496 -232 2904 -504 2904 -984 c 0
 2904 -1464 2592 -1752 2000 -1752 c 0
 1976 -1752 1944 -1752 1944 -1752 c 1
 2032 -1792 2192 -1888 2544 -1888 c 0
 3504 -1888 3360 -856 3360 160 c 2
 3360 3520 l 1
 80 3520 l 1
 80 3680 l 1
 4880 3680 l 1
EndSplineSet
Fore
SplineSet
80 72 m 1
 2960 72 l 1
 2960 0 l 1
 80 0 l 1
 80 72 l 1
4880 -96 m 2
 4880 -1144 3864 -2080 2664 -2080 c 0
 1856 -2080 1200 -1704 1200 -1088 c 0
 1200 -600 1576 -232 2056 -232 c 0
 2496 -232 2904 -504 2904 -984 c 0
 2904 -1464 2544 -1752 2048 -1752 c 0
 1760 -1752 1584 -1592 1504 -1408 c 1
 1576 -1728 2000 -1984 2544 -1984 c 0
 3504 -1984 3360 -856 3360 160 c 2
 3360 3608 l 1
 80 3608 l 1
 80 3680 l 1
 4880 3680 l 1
 4880 -96 l 2
4568 5544 m 1
 4384 5776 4024 6000 3416 6000 c 0
 2536 6000 2240 5336 2240 4320 c 2
 2240 0 l 1
 800 0 l 1
 800 4096 l 2
 800 5384 1816 6080 3416 6080 c 0
 4304 6080 4880 5584 4880 5048 c 0
 4880 4560 4584 4232 4104 4232 c 0
 3664 4232 3256 4504 3256 4984 c 0
 3256 5464 3608 5760 4040 5760 c 0
 4288 5760 4480 5640 4568 5544 c 1
EndSplineSet
LCarets2: 1 0
Ligature2: "'liga' Standard Ligatures lookup 0-1" f j
EndChar

StartChar: uni2116
Encoding: 8470 8470 344
Width: 9648
Flags: HW
LayerCount: 2
Fore
SplineSet
7400 4560 m 0
 7400 3648 7520 3112 7832 3112 c 0
 8144 3112 8264 3648 8264 4560 c 0
 8264 5472 8144 6008 7832 6008 c 0
 7520 6008 7400 5472 7400 4560 c 0
6240 4560 m 0
 6240 5600 6944 6080 7832 6080 c 0
 8720 6080 9424 5600 9424 4560 c 0
 9424 3520 8720 3040 7832 3040 c 0
 6944 3040 6240 3520 6240 4560 c 0
EndSplineSet
Refer: 85 45 N 1 0 0 1 6392 320 2
Refer: 25 78 N 1 0 0 1 0 0 2
EndChar

StartChar: Euro
Encoding: 8364 8364 345
Width: 5920
Flags: HW
LayerCount: 2
Fore
SplineSet
5304 5344 m 1
 5104 5640 4576 5968 3912 5968 c 0
 2960 5968 2720 4712 2720 3000 c 0
 2720 1128 3008 88 3800 88 c 0
 4560 88 5184 696 5384 1424 c 1
 5464 1424 l 1
 5256 648 4592 -80 3464 -80 c 0
 1856 -80 760 1160 760 3000 c 0
 760 4680 1824 6080 3672 6080 c 0
 4888 6080 5640 5424 5640 4768 c 0
 5640 4200 5264 3872 4784 3872 c 0
 4344 3872 3928 4160 3928 4720 c 0
 3928 5240 4312 5560 4784 5560 c 0
 5008 5560 5224 5440 5304 5344 c 1
EndSplineSet
Refer: 88 61 N 1 0 0 1 -240 -560 2
EndChar
